<?xml version="1.0" encoding="UTF-8" standalone="no"?>
<!-- Created with Inkscape (http://www.inkscape.org/) -->

<svg
   xmlns:dc="http://purl.org/dc/elements/1.1/"
   xmlns:cc="http://creativecommons.org/ns#"
   xmlns:rdf="http://www.w3.org/1999/02/22-rdf-syntax-ns#"
   xmlns:svg="http://www.w3.org/2000/svg"
   xmlns="http://www.w3.org/2000/svg"
   xmlns:sodipodi="http://sodipodi.sourceforge.net/DTD/sodipodi-0.dtd"
   xmlns:inkscape="http://www.inkscape.org/namespaces/inkscape"
   version="1.1"
   id="svg3737"
   width="400"
   height="400"
   viewBox="0 0 400 400"
   sodipodi:docname="M821.svg"
   inkscape:version="0.92.4 (5da689c313, 2019-01-14)">
  <metadata
     id="metadata3743">
    <rdf:RDF>
      <cc:Work
         rdf:about="">
        <dc:format>image/svg+xml</dc:format>
        <dc:type
           rdf:resource="http://purl.org/dc/dcmitype/StillImage" />
        <dc:title></dc:title>
      </cc:Work>
    </rdf:RDF>
  </metadata>
  <defs
     id="defs3741" />
  <sodipodi:namedview
     pagecolor="#ffffff"
     bordercolor="#666666"
     borderopacity="1"
     objecttolerance="10"
     gridtolerance="10"
     guidetolerance="10"
     inkscape:pageopacity="0"
     inkscape:pageshadow="2"
     inkscape:window-width="2560"
     inkscape:window-height="1377"
     id="namedview3739"
     showgrid="false"
     inkscape:zoom="1.84375"
     inkscape:cx="291.22542"
     inkscape:cy="226.1169"
     inkscape:window-x="-8"
     inkscape:window-y="-8"
     inkscape:window-maximized="1"
     inkscape:current-layer="svg3737" />
  <path
     style="fill:#000000"
     d="m 267.32506,350.96867 c -2.77813,-4.78196 -2.89495,-5.0555 -8.64816,-20.25 -2.29076,-6.05 -4.57048,-11.4275 -5.06604,-11.95 -0.49556,-0.5225 -0.90102,-1.80814 -0.90102,-2.85699 0,-1.4078 -0.4581,-1.72951 -1.75,-1.22899 -0.9625,0.3729 -3.78997,0.92218 -6.28326,1.22061 -3.50894,0.42001 -4.85157,0.15906 -5.94201,-1.15483 -2.16327,-2.60658 -0.0547,-5.09806 4.02389,-4.75452 6.26827,0.528 9.76788,-1.48044 13.21143,-7.58206 1.80512,-3.19851 3.05717,-6.73198 2.90373,-8.19478 -0.14836,-1.41441 0.16871,-4.52309 0.7046,-6.90818 0.5359,-2.38508 0.72924,-4.97527 0.42965,-5.75598 -0.45791,-1.1933 -7.20119,-5.33428 -8.68648,-5.33428 -0.25746,0 -0.99463,2.5875 -1.63815,5.75 -2.39604,11.77512 -8.5348,26.4642 -11.72205,28.04903 -3.91835,1.94837 -13.34819,3.42779 -19.39468,3.04278 -7.13897,-0.45457 -15.3955,-4.58892 -17.49298,-8.75937 -0.77768,-1.54627 -1.36894,-1.88296 -1.87337,-1.06677 -1.49388,2.41713 -9.00953,4.94048 -14.78016,4.96237 -6.74175,0.0256 -11.22464,-1.93714 -17.40776,-7.62151 -3.60787,-3.31685 -4.63123,-5.25067 -7.31289,-13.81903 -2.89237,-9.24161 -3.13143,-11.12299 -3.30375,-26 -0.10217,-8.82063 0.17593,-18.55945 0.618,-21.64184 l 0.80376,-5.60434 -5.20626,-0.61661 c -2.86344,-0.33913 -6.91984,-1.46442 -9.01423,-2.50064 l -3.80798,-1.88404 -0.68669,4.60499 c -0.37769,2.53274 -1.55853,6.62998 -2.62409,9.10498 -2.50482,5.81799 -4.41254,11.61131 -5.26875,16 -0.64071,3.28412 -2.71873,10.91002 -6.13112,22.5 -0.80968,2.75 -1.78629,8.825 -2.17027,13.5 -0.67463,8.21383 -0.7823,8.5 -3.19813,8.5 -2.46279,0 -2.49466,-0.10419 -2.14071,-7 0.46402,-9.04021 1.34769,-13.87636 4.65945,-25.5 1.48868,-5.225 3.2902,-11.975 4.00338,-15 1.76113,-7.46998 2.9368,-11.05298 4.82455,-14.70349 0.87789,-1.69765 2.1949,-5.9981 2.92668,-9.55653 l 1.33051,-6.46989 -3.28705,-3.88505 -3.28706,-3.88504 -0.0149,-16.41809 c -0.016,-17.66351 -1.39021,-29.08191 -3.50005,-29.08191 -1.346,0 -7.96195,-9.6991 -11.25498,-16.5 -1.06525,-2.2 -4.4845,-8.83541 -7.59832,-14.74536 -5.38143,-10.21378 -5.66097,-11.10425 -5.65068,-18 0.0124,-8.30634 1.45081,-13.76418 6.0055,-22.786979 6.24486,-12.371004 15.96232,-23.523507 24.98898,-28.679302 5.87313,-3.354579 19.21276,-7.288358 24.71516,-7.288358 5.52311,0 9.66158,-2.400985 13.60891,-7.895387 6.02843,-8.39113 8.30227,-9.358344 20.33637,-8.650411 7.30782,0.429898 12.36821,0.15855 18,-0.965196 9.33406,-1.862482 21.38303,-7.471114 26.02724,-12.115316 4.19593,-4.195932 6.52793,-4.775379 15.74329,-3.91183 8.83942,0.828321 12.17941,2.912466 18.09208,11.289408 2.21559,3.139001 5.59059,6.770613 7.5,8.070249 3.38179,2.301808 3.83694,2.345131 17.58362,1.673669 15.74542,-0.769092 17.28285,-0.391366 23.07606,5.669495 3.85523,4.033333 6.79076,10.648913 8.96285,20.198875 2.23122,9.809928 1.19549,43.838133 -1.63256,53.636443 -1.03184,3.575 -2.38395,9.65 -3.0047,13.5 -6.7596,41.92438 -11.46244,60.61471 -17.25379,68.57116 -1.02932,1.41413 -3.37351,6.58913 -5.2093,11.5 -7.55034,20.19765 -8.67416,22.95438 -11.14684,27.34321 -1.42096,2.5221 -4.09865,8.22567 -5.95041,12.67461 -1.85176,4.44893 -5.29978,11.87393 -7.66228,16.5 -4.42801,8.67062 -5.33036,10.49788 -7.6486,15.48845 -4.51416,9.71783 -8.36062,16.42257 -9.42152,16.42257 -0.58823,0 -0.16844,1.0125 0.93286,2.25 1.1013,1.2375 3.8934,7.2 6.20468,13.25 2.31128,6.05 5.82007,14.21419 7.79732,18.14264 1.97725,3.92845 3.28703,7.64095 2.91061,8.25 -1.48952,2.41009 -4.5216,1.03927 -6.95113,-3.14264 z m -38.01264,-44.2347 c 3.13509,-0.81659 5.80173,-1.60409 5.92587,-1.75 0.12414,-0.14592 1.21105,-2.21873 2.41536,-4.60626 1.89025,-3.7474 1.99098,-4.49945 0.7367,-5.5 -0.96898,-0.77297 -1.62592,-3.90735 -1.97223,-9.40993 -0.89756,-14.26145 -5.38195,-19.24911 -17.30682,-19.24911 -4.68809,0 -5.65182,0.37528 -8.34615,3.25 -3.03573,3.23898 -3.43023,4.30819 -3.10539,8.41639 0.0942,1.19152 -0.56525,2.57858 -1.46547,3.08237 -1.08578,0.60764 -1.9147,3.07634 -2.46242,7.33361 -0.45412,3.5297 -1.12925,7.16932 -1.5003,8.08806 -0.49754,1.23193 -0.0747,1.75694 1.61082,2 1.41831,0.20452 2.49182,1.21028 2.82933,2.65076 0.65816,2.80897 8.98862,7.1561 13.73933,7.16967 1.76067,0.005 5.76628,-0.65898 8.90137,-1.47556 z m -38.04862,-5.4006 c 3.49461,-1.58731 4.28796,-2.56595 5.75,-7.09287 2.03631,-6.30509 2.19245,-12.36496 0.35781,-13.88757 -0.73602,-0.61085 -1.91217,-3.67528 -2.61365,-6.80985 -2.29105,-10.23748 -6.32674,-14.32441 -14.14483,-14.32441 -6.57482,0 -9.5329,2.22703 -12.94058,9.74251 -4.3162,9.51917 -4.39224,10.28194 -1.82099,18.26542 1.79812,5.58299 3.09941,7.80088 5.83619,9.94712 8.11995,6.36784 12.61275,7.3225 19.57605,4.15965 z m 53.31338,-22.63939 c 1.09154,-5.48642 2.25924,-13.12675 2.59488,-16.97851 0.33563,-3.85176 1.52533,-10.37676 2.64376,-14.5 3.01815,-11.12678 4.48781,-17.49471 6.34598,-27.4968 0.91961,-4.95 3.66912,-14.93707 6.11003,-22.1935 2.4409,-7.25642 4.43801,-14.45659 4.43801,-16.00037 0,-1.54378 0.68495,-5.95671 1.5221,-9.8065 4.43119,-20.3775 5.63209,-44.14337 2.85254,-56.45161 -1.22726,-5.43448 -1.34298,-7.47968 -0.47247,-8.35019 0.81942,-0.81942 1.63387,-0.84947 2.81585,-0.1039 5.71228,3.60321 5.60371,41.23522 -0.19592,67.9057 -0.83715,3.84979 -1.5221,8.22343 -1.5221,9.71919 0,1.49575 -1.99865,8.69592 -4.44145,16.00037 -2.4428,7.30445 -5.19231,17.33081 -6.11002,22.28081 -1.85252,9.99218 -3.31952,16.35206 -6.34255,27.4968 -1.11843,4.12324 -2.33296,10.53574 -2.69896,14.25 -0.58196,5.90597 -0.45605,6.7532 1.00361,6.7532 3.04666,0 9.64168,4.03767 11.44886,7.00935 l 1.78104,2.92868 2.81804,-5.21776 c 2.30835,-4.27405 9.54143,-20.50323 9.54143,-21.40853 0,-0.13693 -0.63044,-0.007 -1.40097,0.28863 -0.77053,0.29568 -3.58303,-1.06196 -6.25,-3.01698 -2.66697,-1.95503 -5.71481,-4.15753 -6.77299,-4.89446 -2.33881,-1.62878 -1.50372,-4.68893 1.27956,-4.68893 2.63768,0 11.35507,5.99799 12.71554,8.7489 1.06571,2.15492 1.22475,2.0421 3.80546,-2.69951 2.57205,-4.72569 3.68878,-7.46826 11.05486,-27.14939 1.7703,-4.72999 4.12343,-9.90499 5.22919,-11.5 5.98988,-8.64013 10.56769,-26.81637 17.35297,-68.9 0.62075,-3.85 1.96219,-9.925 2.98098,-13.5 2.44781,-8.58957 3.76858,-38.494886 2.04031,-46.197683 -3.04854,-13.587155 -6.52965,-20.308173 -12.35261,-23.849326 -2.77425,-1.687122 -4.50718,-1.815354 -17.15217,-1.269209 -11.71178,0.505838 -14.57783,0.342914 -17.12328,-0.973391 -3.47757,-1.798323 -9.95822,-8.631658 -11.59678,-12.227885 -1.74418,-3.828079 -7.67051,-7.203612 -13.93427,-7.936724 -5.50391,-0.64418 -5.72303,-0.572729 -10.24465,3.34071 -11.04471,9.559124 -28.59589,14.877285 -45.44575,13.770458 -11.26319,-0.739851 -13.37838,0.08895 -18.53107,7.261113 -4.77693,6.649147 -7.25402,8.093367 -15.70061,9.153959 -10.37902,1.303236 -20.07659,4.472963 -26.1132,8.535304 -14.19539,9.552784 -28.06099,33.872394 -26.61686,46.684704 0.48557,4.30795 15.58188,34.4521 19.8859,39.70797 l 2.04725,2.5 -0.74072,-6 c -0.4074,-3.3 -0.78018,-9.6 -0.82841,-14 -0.0807,-7.36256 0.0717,-8 1.91232,-8 1.73485,0 2.10395,0.92803 2.78408,7 0.43124,3.85 0.98981,11.725 1.24126,17.5 0.25146,5.775 0.74917,15.54825 1.10604,21.71833 l 0.64885,11.21832 2.60988,-1.77239 c 5.64239,-3.83179 11.13305,-5.48872 18.47954,-5.57663 l 7.32308,-0.0876 0.76238,-25.5 c 0.41931,-14.025 1.05094,-30.225 1.40363,-36 0.6326,-10.35822 0.67497,-10.5 3.13781,-10.5 h 2.49654 l -0.34683,11 c -0.19076,6.05 -0.54867,11.33006 -0.79535,11.73347 -0.24668,0.40341 -0.86999,17.27841 -1.38512,37.5 -0.73067,28.68257 -1.36319,39.18513 -2.87675,47.76653 -2.84284,16.11789 -4.29746,31.9837 -3.51012,38.28536 l 0.69084,5.52928 2.11512,-4.39843 c 2.85813,-5.94352 6.96424,-8.47088 15.11983,-9.30645 8.95343,-0.9173 13.67987,1.55435 17.69688,9.25443 2.10039,4.02619 2.79943,4.77449 2.80249,3 0.0172,-9.9427 5.85219,-58.97098 8.51284,-71.52841 0.9001,-4.24822 1.48183,-13.08155 1.53679,-23.33578 0.0486,-9.075 0.48669,-20.325 0.97346,-25 0.48677,-4.675 1.53755,-15.31317 2.33507,-23.64037 0.79753,-8.3272 1.97264,-16.11685 2.61137,-17.31033 1.70646,-3.18854 4.56333,-2.22489 4.37496,1.47571 -0.3933,7.72673 -3.28451,34.56233 -3.81639,35.42292 -0.33,0.53395 -1.00199,13.0266 -1.49332,27.76144 -0.49133,14.73485 -1.36417,28.36563 -1.93966,30.29063 -1.11588,3.73264 -5.54592,37.50272 -6.55911,50 -0.33442,4.125 -0.87495,9.74632 -1.20116,12.49181 l -0.59312,4.99181 3.0283,-3.24181 c 2.97399,-3.18366 3.18703,-3.24178 11.8771,-3.24026 10.91159,0.002 14.65857,1.63494 18.64356,8.12533 2.22716,3.62738 2.96572,6.27813 3.41894,12.27076 0.31796,4.20413 0.71106,7.51093 0.87355,7.34843 0.1625,-0.16249 1.18853,-4.78433 2.28008,-10.27076 z m -7.71423,-42.72531 c -0.68579,-0.6875 -4.48829,-1.475 -8.45,-1.75 -6.36978,-0.44215 -7.20311,-0.73138 -7.20311,-2.5 0,-1.81276 0.76294,-2.02704 8.14911,-2.28881 7.36728,-0.26111 8.41472,-0.0604 10.91746,2.09242 1.8251,1.56988 2.55162,2.94601 2.13227,4.03881 -0.75086,1.95672 -3.77848,2.17923 -5.54573,0.40758 z m -54.15311,-7.65359 c -4.63453,-0.50256 -5.5,-0.91113 -5.5,-2.59641 0,-1.80952 0.66667,-2 7,-2 6.78972,0 7,0.0747 7,2.4863 0,2.81427 -0.60999,2.9657 -8.5,2.11011 z m 118.12549,-46.92017 c -2.51243,-3.52839 -7.69794,-6.13783 -13.98403,-7.03702 -4.09228,-0.58537 -4.64146,-0.95665 -4.64146,-3.13788 0,-3.30123 2.2836,-3.62745 10.26641,-1.4666 7.71404,2.08809 14.60948,7.78852 14.06347,11.6262 -0.48222,3.38934 -3.29648,3.39689 -5.70439,0.0153 z M 250.3935,166.70687 c -3.84373,-4.84178 -9.47995,-8.387 -14.76924,-9.28995 -3.47238,-0.59278 -4.41442,-1.1745 -4.41442,-2.72593 0,-1.52405 0.79548,-2.04793 3.5,-2.30499 5.63879,-0.53595 10.5102,1.53233 16.49759,7.00447 4.45026,4.06728 5.54437,5.65912 5.30455,7.71765 -0.44272,3.80012 -2.91169,3.63821 -6.11848,-0.40125 z M 198.20984,149.9517 c -1.1,-0.67817 -5.825,-1.45803 -10.5,-1.73303 -7.66667,-0.45098 -8.5,-0.69608 -8.5,-2.5 0,-1.83476 0.76241,-2.02373 9.22766,-2.28723 10.73868,-0.33426 15.62369,1.31241 15.08433,5.08475 -0.36813,2.57468 -2.52069,3.15639 -5.31199,1.43551 z m -39.60613,76.01697 c 1.14416,-3.04885 3.00156,-17.55716 3.42905,-26.78461 l 0.34906,-7.53461 -7.08599,1.03461 c -6.98703,1.02016 -7.01973,1.03886 -2.34198,1.33916 3.26216,0.20941 5.03486,0.848 5.67514,2.04439 0.54042,1.00977 0.64784,7.17624 0.256,14.69545 l -0.67515,12.95561 -4.5,1.43934 c -4.16837,1.33328 -4.31576,1.49174 -2,2.15032 4.4488,1.2652 6.03177,0.95759 6.89387,-1.33966 z m -3.76279,-4.57686 c 1.23669,-1.31913 1.70335,-23.30515 0.50229,-23.66484 -0.62335,-0.18668 -4.01472,-0.60272 -7.53637,-0.92452 l -6.403,-0.5851 -3.847,4.16705 c -3.33073,3.60782 -3.847,4.80048 -3.847,8.887 0,4.25753 0.46535,5.21318 4.75,9.75453 l 4.75,5.03459 5.5,-0.99778 c 3.025,-0.54879 5.78398,-1.3007 6.13108,-1.67093 z"
     id="path3747"
     inkscape:connector-curvature="0" />
</svg>
