<?xml version="1.0" encoding="UTF-8" standalone="no"?>
<!-- Created with Inkscape (http://www.inkscape.org/) -->

<svg
   xmlns:dc="http://purl.org/dc/elements/1.1/"
   xmlns:cc="http://creativecommons.org/ns#"
   xmlns:rdf="http://www.w3.org/1999/02/22-rdf-syntax-ns#"
   xmlns:svg="http://www.w3.org/2000/svg"
   xmlns="http://www.w3.org/2000/svg"
   xmlns:sodipodi="http://sodipodi.sourceforge.net/DTD/sodipodi-0.dtd"
   xmlns:inkscape="http://www.inkscape.org/namespaces/inkscape"
   version="1.1"
   id="svg3761"
   width="400"
   height="400"
   viewBox="0 0 400 400"
   sodipodi:docname="T1626.svg"
   inkscape:version="0.92.4 (5da689c313, 2019-01-14)">
  <metadata
     id="metadata3767">
    <rdf:RDF>
      <cc:Work
         rdf:about="">
        <dc:format>image/svg+xml</dc:format>
        <dc:type
           rdf:resource="http://purl.org/dc/dcmitype/StillImage" />
        <dc:title></dc:title>
      </cc:Work>
    </rdf:RDF>
  </metadata>
  <defs
     id="defs3765" />
  <sodipodi:namedview
     pagecolor="#ffffff"
     bordercolor="#666666"
     borderopacity="1"
     objecttolerance="10"
     gridtolerance="10"
     guidetolerance="10"
     inkscape:pageopacity="0"
     inkscape:pageshadow="2"
     inkscape:window-width="2560"
     inkscape:window-height="1377"
     id="namedview3763"
     showgrid="false"
     inkscape:zoom="2.6074563"
     inkscape:cx="127.97628"
     inkscape:cy="235.63946"
     inkscape:window-x="-8"
     inkscape:window-y="-8"
     inkscape:window-maximized="1"
     inkscape:current-layer="svg3761" />
  <path
     style="fill:#000000"
     d="m 218.94112,362.12288 c -1.97298,-2.42825 -8.10489,-22.37036 -9.68949,-31.51202 -2.45593,-14.16849 -0.73275,-22.39283 6.39199,-30.50747 3.08903,-3.51821 16.51644,-10.64653 24.06825,-12.77732 9.88218,-2.78831 16.54359,-5.20132 18.95981,-6.86793 2.13332,-1.47149 8.96061,-5.23031 23.04018,-12.68496 1.375,-0.72801 5.54436,-3.75739 9.26525,-6.73195 3.72088,-2.97455 8.78338,-6.17901 11.25,-7.12102 2.46661,-0.94201 4.48475,-2.29273 4.48475,-3.0016 0,-0.70887 2.06511,-5.95915 4.58913,-11.66729 7.0179,-15.87119 9.41087,-21.7263 9.41087,-23.02651 0,-0.65329 2.27004,-6.07278 5.04454,-12.04329 2.7745,-5.97052 6.42294,-16.13245 8.10765,-22.58207 1.68471,-6.44961 3.68966,-12.94172 4.45546,-14.42691 1.88395,-3.65376 1.75721,-5.66883 -0.67292,-10.69862 -4.83782,-10.01312 -6.44389,-37.19463 -2.72398,-46.10104 3.1708,-7.5917 3.12127,-8.82703 -0.44102,-10.998956 -4.1043,-2.5024 -8.37597,-2.53857 -12.36728,-0.10471 -11.78511,7.186426 -19.47011,23.669656 -23.35992,50.103666 -0.607,4.125 -1.34522,8.2875 -1.64047,9.25 -0.40215,1.31094 0.0446,1.76107 1.78055,1.79413 4.50539,0.0858 12.31739,2.6649 12.31739,4.06653 0,1.51083 -3.99877,1.41061 -8.25299,-0.20685 -1.30747,-0.49709 -3.58541,-0.89692 -5.06211,-0.8885 -4.59169,0.0262 -0.4441,1.75823 6.00176,2.50635 5.99301,0.69557 8.20133,2.00849 5.27014,3.13329 -1.63286,0.62659 -10.43024,-0.70273 -13.50586,-2.04079 -1.89566,-0.82471 -4.53448,3.57998 -8.83394,14.74549 -1.65312,4.29308 -4.19919,9.37039 -5.65794,11.28291 -4.65678,6.10535 -15.22958,9.57809 -14.28297,4.69138 0.17815,-0.91966 1.67391,-2.41953 3.32391,-3.33303 l 3,-1.66092 0.27634,-15.22375 c 0.23094,-12.7228 -0.0449,-16.32381 -1.67888,-21.92 -2.78533,-9.53921 -5.72766,-23.93213 -7.50179,-36.69624 -0.84092,-6.05 -2.66402,-14.23995 -4.05135,-18.19988 -1.38733,-3.959936 -3.29336,-11.550866 -4.23562,-16.868746 -1.60035,-9.032 -1.94302,-9.84217 -5.20245,-12.30011 -1.9191,-1.447193 -6.21559,-5.175792 -9.54776,-8.285772 -10.67264,-9.961002 -22.14802,-14.340265 -31.04772,-11.848504 -5.95775,1.668068 -9.19179,4.274266 -10.02792,8.081159 -0.92812,4.225702 6.0387,22.787247 8.97456,23.910697 1.12343,0.4299 2.8629,1.69246 3.86549,2.80569 1.48065,1.64403 2.38828,1.8619 4.83427,1.1604 4.23101,-1.21344 11.51594,-5.53006 17.02986,-10.0909 3.25852,-2.69528 4.91226,-3.51241 5.42606,-2.68106 1.07188,1.73434 -7.55102,8.96337 -15.67872,13.14429 l -6.83463,3.51575 3.57227,4.67846 3.57227,4.678456 5.62786,-0.684986 c 3.09533,-0.37674 8.77787,-1.36504 12.62787,-2.19622 9.22866,-1.99239 8.94218,-1.96741 9.38889,-0.81872 0.68141,1.75221 -4.07614,3.315976 -15.63889,5.140386 l -11.25,1.77506 v 11.16983 c 0,7.73041 0.3849,11.4809 1.25,12.18006 1.8947,1.53127 22.92445,7.23466 26.67587,7.23466 2.29913,0 3.68863,1.78549 2.3957,3.07842 -0.88513,0.88513 -26.63985,-5.10802 -30.24701,-7.03852 -3.27391,-1.75214 -12.64937,13.18052 -15.67118,24.9601 -1.42268,5.54587 -1.61136,10.88257 -1.28541,36.35606 l 0.38203,29.85606 -3.5,1.2554 c -14.81427,5.31369 -28.16667,7.1192 -33.10476,4.47642 -1.59573,-0.85401 -2.56534,-0.55787 -5.06779,1.54779 -6.23683,5.24795 -10.80467,6.9403 -18.82745,6.97543 -6.88942,0.0302 -7.88378,-0.23554 -12.21408,-3.26376 -2.59275,-1.81314 -5.6644,-4.50474 -6.82591,-5.98136 -1.59881,-2.03256 -2.8324,-2.60916 -5.07813,-2.3736 -4.19011,0.43952 -12.79431,-2.48982 -16.63087,-5.66205 -2.49089,-2.05957 -4.32943,-5.48636 -7.87954,-14.68639 -2.546811,-6.6 -5.290351,-14.025 -6.096771,-16.5 -3.17222,-9.73595 -5.79531,-15.55171 -9.55105,-21.17597 -3.98566,-5.96858 -4.28378,-8.82403 -0.92126,-8.82403 3.2297,0 12.31976,15.25336 14.6005,24.5 0.40698,1.65 2.678211,7.95 5.047171,14 2.36896,6.05 4.6575,11.9 5.08566,13 0.68844,1.76873 0.84702,1.65309 1.37137,-1 0.89827,-4.5451 5.92134,-6.7717 13.78102,-6.10876 l 6.18811,0.52195 1.27211,-5.70659 c 1.28059,-5.74468 1.3394,-9.53818 0.70079,-45.2066 -0.31862,-17.79613 -0.5413,-19.85921 -2.54851,-23.61094 -2.50282,-4.67812 -4.64745,-5.3638 -16.80061,-5.37147 -7.7471,-0.005 -9.46079,0.78934 -16.161431,7.49018 -5.29084,5.29098 -8.79715,10.98165 -12.51954,20.31895 -1.68247,4.2203 -4.07553,9.47328 -5.31792,11.67328 -1.2424,2.2 -2.52538,5.45364 -2.85107,7.2303 -0.71476,3.89905 0.70968,4.90618 8.53106,6.03178 2.92539,0.42101 5.3189,1.20927 5.3189,1.75169 0,1.59805 -6.8426,1.70288 -11.28348,0.17287 l -4.10657,-1.41483 -0.51519,5.1141 c -0.28336,2.81275 -0.76796,9.38909 -1.0769,14.61409 -0.30894,5.225 -1.5053,14.225 -2.65858,20 -2.64671,13.25332 -2.13517,20.98046 2.08694,31.52468 1.91991,4.79475 3.85871,12.62169 5.15933,20.82828 1.14599,7.23087 2.48231,14.04704 2.96962,15.14704 0.4873,1.1 1.32362,5.64478 1.85848,10.0995 0.53487,4.45473 1.63011,9.85473 2.43387,12 0.80376,2.14528 2.56744,6.8255 3.91929,10.4005 1.35185,3.575 2.98704,9.58644 3.63376,13.35876 0.64672,3.77232 1.77864,7.82232 2.5154,9 0.73675,1.17768 1.63781,3.84135 2.00236,5.91927 0.36454,2.07792 1.5517,6.56052 2.63813,9.96133 2.211851,6.92369 1.921391,9.05139 -1.17137,8.58078 -2.40242,-0.36557 -4.33625,-4.81408 -6.31063,-14.51674 -0.69352,-3.40813 -1.75468,-6.79152 -2.35814,-7.51865 -0.60346,-0.72713 -1.63594,-4.46366 -2.2944,-8.3034 -0.65846,-3.83974 -2.30326,-9.90635 -3.65511,-13.48135 -1.35185,-3.575 -3.11553,-8.25522 -3.91929,-10.4005 -0.80376,-2.14527 -1.899,-7.54527 -2.43387,-12 -0.53486,-4.45472 -1.37118,-8.9995 -1.85848,-10.0995 -0.48731,-1.1 -1.82999,-7.95435 -2.98373,-15.23188 -1.32955,-8.3864 -3.24021,-16.07655 -5.21756,-21 -4.3252,-10.76939 -4.90524,-21.66083 -1.97033,-36.99736 1.18189,-6.17608 2.57731,-17.42608 3.10093,-25 1.0891,-15.75366 2.81755,-24.60554 5.74408,-29.41718 1.12183,-1.84447 3.4099,-6.80656 5.08459,-11.02686 4.81417,-12.13195 11.14729,-20.86786 19.56688,-26.99061 3.739211,-2.71915 4.368111,-2.83611 15.250001,-2.83611 h 11.34997 v -3.30116 c 0,-4.01963 6.28038,-14.074466 12.96874,-20.762816 4.19595,-4.19595 5.20637,-4.6975 10.72028,-5.32133 10.42893,-1.1799 24.22347,2.0777 24.35012,5.75032 0.0215,0.62424 0.63505,-0.21501 1.36337,-1.86501 2.6643,-6.03587 10.00014,-9.5 20.11773,-9.5 3.56387,0 6.47976,-0.21329 6.47976,-0.47397 0,-0.26068 -1.3932,-3.97318 -3.096,-8.25 -5.61003,-14.090347 -2.96397,-23.023189 7.9182,-26.731117 5.83023,-1.986561 12.90529,-1.962662 20.02389,0.06764 7.31458,2.086195 11.27128,4.46976 18.77266,11.308886 3.36532,3.068207 8.09032,7.201819 10.49999,9.185798 4.27024,3.515853 4.4262,3.853793 6.15529,13.337603 0.97573,5.3517 2.90747,12.95344 4.29276,16.89276 1.3853,3.939316 3.14869,11.888266 3.91865,17.664326 1.47812,11.08844 5.61587,31.1077 7.64707,36.99807 0.66381,1.925 1.46805,10.25 1.7872,18.5 l 0.58028,15 2.34349,-6.5 c 1.28892,-3.575 3.86062,-9.09322 5.71488,-12.26271 3.7934,-6.48406 4.87871,-9.95934 6.47618,-20.73729 4.03488,-27.22308 12.28324,-44.12402 25.45443,-52.156286 4.95122,-3.01944 13.83485,-2.49947 20.26102,1.1859 5.5869,3.20406 6.05705,4.3393 3.85943,9.319256 -3.53993,8.02175 -4.73187,12.45114 -5.25362,19.52311 -0.66689,9.03916 1.50942,22.87594 4.60615,29.28541 3.22027,6.6652 3.56392,10.88888 1.2556,15.4322 -1.09272,2.15073 -3.42329,9.30496 -5.17906,15.89831 -1.75576,6.59334 -5.40769,16.75527 -8.11539,22.58206 -2.70771,5.82679 -4.92311,11.1928 -4.92311,11.92447 0,0.73167 -2.20119,6.31974 -4.89153,12.41794 -4.9836,11.29634 -8.45367,19.65576 -9.50067,22.88719 -0.32069,0.98976 -3.10115,2.91318 -6.17881,4.27426 -3.07766,1.36109 -8.64549,4.93879 -12.37295,7.95044 -3.72747,3.01166 -6.99205,5.47574 -7.25462,5.47574 -0.65041,0 -23.92374,12.85812 -25.24559,13.94776 -1.06966,0.88175 -9.33597,3.701 -17.55582,5.98748 -7.72373,2.14846 -21.03668,9.24202 -23.48108,12.51145 -5.79735,7.75408 -6.78464,13.3038 -4.54588,25.55331 1.29053,7.06128 7.62084,26.73709 9.24564,28.73727 0.55279,0.68049 0.74385,1.91799 0.42458,2.75 -0.70261,1.83097 -4.00941,1.99145 -5.41401,0.26273 z M 158.883,227.68322 c 6.99576,-3.80757 7.6698,-4.88801 7.09993,-11.38068 l -0.48892,-5.57033 -7.14107,-1.26179 c -3.92759,-0.69399 -8.92693,-1.11233 -11.10965,-0.92967 -4.27298,0.3576 -4.1555,0.21715 -9.04424,10.81221 l -2.5286,5.48008 2.27071,1.74262 c 7.14,5.47951 12.39819,5.7576 20.94184,1.10756 z m 32.3847,-6.31794 5.94417,-2.0076 -0.0263,-7.41642 c -0.02,-5.66007 -0.44462,-7.87871 -1.79287,-9.36851 -3.94229,-4.35618 -14.89946,-2.89116 -19.3913,2.5927 -2.95587,3.60869 -3.33056,15.50174 -0.53958,17.12733 2.79544,1.62819 9.38347,1.2416 15.80583,-0.9275 z m -55.02597,-5.17836 c 1.08358,-2.85228 3.02264,-6.45228 4.30903,-8 2.07508,-2.49663 2.99704,-2.81404 8.17371,-2.81404 3.20915,0 8.11729,0.52686 10.90698,1.1708 2.78969,0.64393 5.38307,0.85988 5.76308,0.47988 0.38,-0.38 -0.13163,-4.7427 -1.13695,-9.69487 -1.49691,-7.37371 -1.7281,-11.85129 -1.27691,-24.72989 0.57,-16.26964 1.72844,-23.37707 6.31193,-38.72592 1.94567,-6.51552 2.82175,-12.06472 3.1736,-20.10194 0.46713,-10.67081 0.40367,-11.12348 -1.63416,-11.65638 -1.24047,-0.32439 -2.12017,-1.35882 -2.12017,-2.493066 0,-3.03382 -3.06813,-5.07514 -9.0243,-6.00415 -9.32995,-1.45523 -13.6809,-0.53926 -18.01208,3.79192 -4.29822,4.298216 -11.96362,15.655376 -11.96362,17.725466 0,0.75029 1.4625,4.37332 3.25,8.05116 3.21931,6.62384 3.2517,6.83809 3.43017,22.68699 0.0991,8.8 0.49756,21.87136 0.88548,29.04746 0.59863,11.07385 0.39011,14.70418 -1.3785,24 -2.62259,13.78429 -3.57975,22.45254 -2.47925,22.45254 0.4685,0 1.73838,-2.33368 2.82196,-5.18596 z m 19.2905,-40.44096 c -2.0361,-1.075 -3.70431,-1.18455 -6.94617,-0.45615 -2.34659,0.52725 -4.6501,0.72156 -5.11892,0.43182 -1.71802,-1.0618 1.42775,-3.14911 5.71492,-3.79201 3.42611,-0.51378 5.31681,-0.19589 8.5031,1.42963 2.25354,1.14967 3.8299,2.52306 3.50301,3.05197 -0.77738,1.25783 -2.36781,1.07076 -5.65594,-0.66526 z M 128.436,205.76368 c -1.27433,-1.27432 -8.7445,-1.53918 -12.10754,-0.42928 -2.54254,0.83911 -3.61659,1.78403 -3.61659,3.18177 0,1.09351 -0.47299,2.87197 -1.05108,3.95214 -0.91743,1.71424 -0.56779,2.16917 2.75,3.5781 2.09059,0.88778 5.82608,2.14638 8.30108,2.79688 l 4.5,1.18273 0.89154,-6.85169 c 0.49035,-3.76843 0.64001,-7.10322 0.33259,-7.41065 z m 74.56257,12.05268 c 1.23721,-0.47476 1.37684,-4.84566 0.9504,-29.75 -0.63535,-37.1054 0.31293,-41.56779 12.29105,-57.83892 l 4.47185,-6.07458 v -9.97169 -9.9717 l -3.6943,-4.668286 c -2.03186,-2.56757 -5.27319,-6.3558 -7.20295,-8.4183 -3.45335,-3.6909 -3.62758,-3.75008 -11.0557,-3.75495 -8.95688,-0.006 -16.6039,2.39972 -18.93622,5.95692 -1.23396,1.88199 -1.75322,6.21088 -2.21941,18.502406 -0.50686,13.36383 -1.05898,17.54984 -3.30343,25.04562 -4.40637,14.71597 -5.70293,22.26367 -6.27003,36.5 -0.41516,10.42204 -0.17072,15.05313 1.07214,20.31205 0.88544,3.74663 1.61659,8.24663 1.62478,10 l 0.0149,3.18795 3.23513,-3.7433 c 5.1032,-5.90481 12.31245,-7.67885 20.93547,-5.15175 0.93519,0.27407 2.67098,2.06882 3.8573,3.98833 1.74235,2.81919 2.02806,4.34948 1.48641,7.96145 -0.58762,3.91858 -0.083,8.44527 0.94154,8.44527 0.19295,0 1.00345,-0.25044 1.8011,-0.55652 z M 191.208,174.60755 c -1.69965,-0.89582 -6.79028,-1.82915 -11.76429,-2.15691 -11.7408,-0.77364 -11.34849,-2.59904 0.53812,-2.50383 9.01053,0.0722 15.73004,1.94865 15.73004,4.39273 0,1.74782 -1.52412,1.83852 -4.50387,0.26801 z m 25.04762,29.83613 c -0.85189,-1.3784 0.61496,-1.85535 7.45625,-2.42438 9.55905,-0.79508 21.33757,-2.43449 26.01803,-3.62135 5.21969,-1.32361 15.58992,-1.00075 15.255,0.47493 -0.12482,0.55 -3.56128,1.2794 -7.63657,1.62088 -4.07528,0.34148 -7.87157,0.90639 -8.4362,1.25535 -1.19239,0.73694 -15.70117,2.63291 -25.34312,3.31178 -4.18715,0.29481 -6.89074,0.0666 -7.31339,-0.61721 z m 68.02172,-4.62791 c -2.81298,-2.48363 -3.62721,-3.78116 -2.85644,-4.55193 0.77077,-0.77077 2.24626,-0.0227 5.17624,2.62436 2.25399,2.03635 3.85033,4.10345 3.54743,4.59356 -0.86799,1.40444 -1.66954,1.04022 -5.86723,-2.66599 z m -177.05596,-9.42749 c -0.33468,-0.54153 0.87626,-1.90088 2.69099,-3.02078 2.44233,-1.50721 4.66637,-1.96584 8.561,-1.7654 6.99442,0.35997 7.14552,2.13497 0.2385,2.80164 -3.025,0.29198 -6.48292,1.07948 -7.68426,1.75 -2.6422,1.47473 -3.02516,1.49833 -3.80623,0.23454 z m 102.98612,-1.02246 c -0.34231,-0.55389 0.19363,-1.27238 1.19099,-1.59666 3.54009,-1.151 8.46153,-3.92116 10.03112,-5.64628 0.87573,-0.9625 2.01401,-1.75 2.52952,-1.75 0.5155,0 2.08145,-0.9 3.47987,-2 2.09749,-1.64989 4.05678,-2 11.19239,-2 8.64998,0 14.07226,1.31783 24.44772,5.94179 2.27301,1.013 4.94877,2.11233 5.94613,2.44295 0.99736,0.33062 1.5333,1.05431 1.19099,1.6082 -0.77448,1.25313 -5.18776,1.32837 -5.94608,0.10137 -0.30787,-0.49813 -4.40794,-2.29813 -9.11129,-4 -10.7749,-3.89882 -22.54185,-4.38073 -26.71986,-1.09431 -1.39842,1.1 -2.80807,2 -3.13254,2 -0.32448,0 -2.78225,1.575 -5.46171,3.5 -4.84679,3.48207 -8.44989,4.41412 -9.63725,2.49294 z m 82.58811,-6.40653 c -4.80127,-4.95365 -2.94481,-6.83311 1.98986,-2.01453 3.42742,3.34679 4.21866,5.42812 2.06354,5.42812 -0.40965,0 -2.23368,-1.53612 -4.0534,-3.41359 z m -79.5326,-14.50366 c -1.09418,-1.77043 1.40227,-2.17249 18.676,-3.00781 25.48455,-1.23239 43.26527,0.0468 40.13021,2.88708 -0.47155,0.42721 -5.80736,0.41776 -11.85736,-0.021 -6.05,-0.43877 -13.92499,-0.61531 -17.49999,-0.39232 -19.62441,1.22406 -28.91824,1.39261 -29.44886,0.53405 z"
     id="path3771"
     inkscape:connector-curvature="0" />
</svg>
