<?xml version="1.0" encoding="UTF-8" standalone="no"?>
<!-- Created with Inkscape (http://www.inkscape.org/) -->

<svg
   xmlns:dc="http://purl.org/dc/elements/1.1/"
   xmlns:cc="http://creativecommons.org/ns#"
   xmlns:rdf="http://www.w3.org/1999/02/22-rdf-syntax-ns#"
   xmlns:svg="http://www.w3.org/2000/svg"
   xmlns="http://www.w3.org/2000/svg"
   xmlns:sodipodi="http://sodipodi.sourceforge.net/DTD/sodipodi-0.dtd"
   xmlns:inkscape="http://www.inkscape.org/namespaces/inkscape"
   version="1.1"
   id="svg3749"
   width="400"
   height="400"
   viewBox="0 0 400 400"
   sodipodi:docname="D1001.svg"
   inkscape:version="0.92.4 (5da689c313, 2019-01-14)">
  <metadata
     id="metadata3755">
    <rdf:RDF>
      <cc:Work
         rdf:about="">
        <dc:format>image/svg+xml</dc:format>
        <dc:type
           rdf:resource="http://purl.org/dc/dcmitype/StillImage" />
        <dc:title></dc:title>
      </cc:Work>
    </rdf:RDF>
  </metadata>
  <defs
     id="defs3753" />
  <sodipodi:namedview
     pagecolor="#ffffff"
     bordercolor="#666666"
     borderopacity="1"
     objecttolerance="10"
     gridtolerance="10"
     guidetolerance="10"
     inkscape:pageopacity="0"
     inkscape:pageshadow="2"
     inkscape:window-width="2560"
     inkscape:window-height="1377"
     id="namedview3751"
     showgrid="false"
     inkscape:zoom="2.6074563"
     inkscape:cx="180.07971"
     inkscape:cy="245.91505"
     inkscape:window-x="-8"
     inkscape:window-y="-8"
     inkscape:window-maximized="1"
     inkscape:current-layer="svg3749" />
  <path
     style="fill:#000000"
     d="m 101.76139,377.98935 c -1.20903,-1.20903 -0.78041,-17.17032 0.71838,-26.75165 0.78497,-5.01813 2.20348,-15.42387 3.15224,-23.12387 1.80068,-14.61408 2.10326,-15.78318 5.56446,-21.5 2.44084,-4.03149 2.92124,-5.48337 6.88513,-20.80829 1.60872,-6.21956 3.12978,-11.63971 3.38013,-12.04478 0.25035,-0.40507 2.28569,-8.832 4.52299,-18.72651 3.51793,-15.55812 4.07884,-19.67507 4.14931,-30.45522 0.0448,-6.85586 0.41718,-17.8652 0.82746,-24.4652 0.63496,-10.21406 1.1671,-12.86833 3.57558,-17.83447 1.73432,-3.57608 3.72103,-6.17339 5.13261,-6.71006 1.26665,-0.48158 4.0533,-2.6259 6.19255,-4.76515 2.13925,-2.13925 5.29434,-4.51137 7.01131,-5.27138 2.16836,-0.9598 3.31973,-2.30371 3.76995,-4.40038 0.3565,-1.66021 2.57652,-7.55084 4.93338,-13.09029 2.35686,-5.53945 5.20261,-12.96445 6.3239,-16.5 2.4837,-7.83142 6.03318,-17.40452 9.42906,-25.43063 1.39679,-3.30129 3.2932,-8.926289 4.21424,-12.499999 2.15084,-8.345388 4.79138,-16.198752 7.5644,-22.497638 2.91171,-6.613945 5.93752,-17.982323 5.9706,-22.432371 0.0146,-1.962196 1.04445,-6.492629 2.28859,-10.067629 2.00825,-5.770658 2.58403,-6.537215 5.13141,-6.831662 4.94378,-0.571442 9.12875,0.75155 12.96816,4.099615 3.24615,2.830728 3.77754,3.938606 4.27959,8.922365 0.31527,3.129675 0.0677,7.698035 -0.55023,10.151912 -0.61789,2.453877 -1.59145,7.761469 -2.16345,11.79465 -1.34967,9.516418 -5.44992,26.143758 -9.07729,36.810247 -3.89165,11.44363 -10.42475,38.86476 -9.48374,39.80576 0.61054,0.61055 9.71354,-1.7948 20.88205,-5.51779 l 7.80161,-2.60065 5.43085,2.74989 c 2.98697,1.51244 5.68357,3.15879 5.99244,3.65856 0.30888,0.49977 3.04248,2.55539 6.07468,4.56805 3.0322,2.01266 10.1817,8.11677 15.88777,13.56468 7.89555,7.53833 11.3974,11.74757 14.65454,17.61483 2.35392,4.24025 5.07976,9.05954 6.05742,10.70954 6.11856,10.32631 6.89547,13.5 3.30478,13.5 -1.40232,0 -1.40544,0.2932 -0.0314,2.95034 0.83912,1.62269 1.52568,3.86155 1.52568,4.97525 0,1.76041 0.33506,1.89752 2.5651,1.04966 5.95462,-2.26394 14.3681,-0.24205 19.23187,4.62172 l 3.39083,3.39083 -0.3439,9.9035 c -0.37991,10.94052 -1.00769,12.24793 -8.02121,16.70506 -2.02252,1.28533 -5.80338,4.40326 -8.40192,6.92875 -6.39226,6.21256 -14.96727,12.70868 -20.42077,15.47003 -5.51755,2.79378 -11.68972,6.95591 -19.2075,12.95236 -3.13913,2.50387 -9.43755,7.4775 -13.99649,11.0525 -4.55894,3.575 -11.21556,9.38755 -14.79249,12.91679 -7.56129,7.46045 -21.22095,17.87808 -24.34558,18.56732 -1.18687,0.2618 -3.73294,0.59748 -5.65794,0.74595 -3.29912,0.25445 -3.54762,0.52822 -4.32975,4.76994 -0.45636,2.475 -0.94899,8.775 -1.09473,14 -0.21646,7.76076 -0.83515,11.02493 -3.37937,17.82939 -2.09416,5.60081 -2.92405,9.2811 -2.53335,11.2346 0.6693,3.34649 -1.68268,4.99432 -4.17553,2.92544 -2.33027,-1.93394 -1.76689,-8.13589 1.51273,-16.65293 2.43336,-6.31933 3.00105,-9.30623 3.00558,-15.81369 0.003,-4.41255 0.40957,-9.59781 0.90334,-11.52281 0.49376,-1.925 1.1633,-5.36079 1.48786,-7.63508 0.50702,-3.55286 0.31112,-4.20804 -1.3913,-4.65324 -3.00015,-0.78455 -4.00625,-4.81784 -3.99785,-16.02678 0.008,-10.18543 2.73616,-33.76211 4.9978,-43.1849 1.65093,-6.87834 12.20234,-28.47026 15.33288,-31.37651 2.84335,-2.63963 5.66169,-2.27989 5.66169,0.72268 0,1.04992 -0.725,2.51063 -1.6111,3.24604 -2.28998,1.90051 -12.95058,24.43787 -14.38347,30.40779 -1.97196,8.21588 -4.98963,32.47945 -4.9978,40.1849 -0.004,3.9517 0.4148,8.29598 0.93111,9.65397 1.39408,3.6667 5.07427,6.66113 8.18661,6.66113 3.7563,0 14.48227,-7.47839 24.93601,-17.38595 4.70875,-4.46273 12.26538,-11.03905 16.7925,-14.61405 4.52712,-3.575 10.79951,-8.54863 13.93864,-11.0525 7.51778,-5.99645 13.68995,-10.15858 19.2075,-12.95236 5.57703,-2.8239 15.19351,-10.14546 20.5,-15.60779 2.2,-2.26461 5.92998,-5.31988 8.28884,-6.78948 4.99978,-3.11491 6.21118,-5.69102 6.21118,-13.20842 0,-6.35375 -2.36515,-9.56792 -8.23269,-11.18803 -4.61909,-1.27539 -12.27144,0.64561 -14.34079,3.60002 -1.1934,1.70383 -2.53978,2.19856 -5.98322,2.19856 -3.29915,0 -4.4433,0.38945 -4.4433,1.51242 0,0.83183 -2.475,3.09566 -5.5,5.03073 -3.025,1.93507 -5.5,3.72894 -5.5,3.98637 0,1.0016 7.36767,15.06164 8.70976,16.6212 0.99986,1.16189 1.09213,1.85368 0.31158,2.33609 -1.75451,1.08435 -3.48718,-0.97432 -7.53955,-8.95811 -3.94343,-7.76918 -4.96651,-8.26435 -8.43648,-4.0833 -0.95363,1.14906 -3.21473,1.5546 -8.66775,1.5546 -4.72706,0 -7.37756,0.3977 -7.37756,1.10699 0,0.60884 0.66814,0.8506 1.48475,0.53724 2.13191,-0.81809 3.60331,2.47223 5.74897,12.85577 2.38582,11.54577 2.46692,12.35974 1.26628,12.70906 -0.55,0.16002 -1.7678,-1.95906 -2.70623,-4.70906 -0.95929,-2.81113 -1.72539,-4.04351 -1.75,-2.8151 -0.0241,1.2017 0.42295,3.41247 0.99339,4.91284 0.59674,1.56956 0.66368,3.10142 0.15762,3.60748 -1.81895,1.81895 -3.4776,-2.48811 -4.36493,-11.33446 -1.03418,-10.31045 -3.6073,-16.58506 -7.09201,-17.29408 -6.12874,-1.24699 -8.44655,-1.66859 -10.73784,-1.95315 -1.375,-0.17077 -2.8174,-0.38092 -3.20534,-0.46701 -1.4107,-0.31305 -9.10129,-14.35356 -9.83522,-17.9559 -0.41468,-2.03534 -1.06699,-5.09088 -1.44959,-6.79008 -0.64659,-2.87165 -0.32533,-3.3555 4.55696,-6.86307 2.88893,-2.07549 6.37959,-5.11297 7.75702,-6.74995 2.74114,-3.25766 3.2163,-3.27225 13.17617,-0.40474 3.025,0.87091 8.54864,1.58882 12.27475,1.59535 6.2046,0.0109 6.85069,0.2116 7.67708,2.38516 1.90487,5.01021 16.53867,14.65279 22.13603,14.58599 l 3.41214,-0.0407 -7.82569,-7.45929 c -4.30414,-4.10261 -8.44008,-7.45929 -9.19099,-7.45929 -2.40777,0 -2.75139,-2.08372 -0.71305,-4.32403 4.10647,-4.51335 4.4999,-6.39153 2.03677,-9.7231 -2.37585,-3.2135 -2.46221,-3.18719 -5.3689,1.6358 -0.63465,1.05306 -1.55873,1.45483 -2.29687,0.99864 -0.94115,-0.58167 -0.78093,-1.53287 0.67341,-3.99778 2.16414,-3.66795 2.77188,-2.97136 -6.47276,-7.41899 -6.24937,-3.0066 -21.53763,-8.17054 -24.18952,-8.17054 -1.79737,0 -2.08988,0.71496 -2.3525,5.75 -0.38837,7.44619 -2.21143,7.44619 -2.5998,0 -0.18089,-3.46802 -0.7531,-5.75 -1.44184,-5.75 -1.93019,0 -14.11001,7.64939 -16.75826,10.52483 -1.375,1.49296 -4.11343,3.74451 -6.0854,5.00345 -1.97197,1.25895 -6.55125,4.80511 -10.17618,7.88036 -6.86535,5.82429 -9.35511,6.75384 -10.4497,3.90137 -0.71017,-1.85067 6.50216,-8.98091 14.71128,-14.54384 2.475,-1.67719 6.3,-4.74117 8.5,-6.80884 2.2,-2.06768 7.03537,-5.59779 10.74527,-7.8447 l 6.74528,-4.08528 8.25472,0.85619 c 10.73993,1.11397 22.116,4.95358 35.41497,11.95315 1.73813,0.91482 6.83553,5.48831 11.32755,10.16331 4.49202,4.675 7.29658,7.15 6.23235,5.5 -1.06424,-1.65 -2.11163,-3.45 -2.32756,-4 -0.21592,-0.55 -2.35783,-4.50951 -4.7598,-8.7989 -4.10933,-7.33835 -4.47255,-7.70359 -6.15073,-6.18486 -2.18003,1.97291 -3.80342,0.17837 -1.9064,-2.10739 1.91049,-2.302 -4.13873,-8.13144 -25.57565,-24.64641 -3.94772,-3.04132 -8.35394,-5.24183 -9.06741,-4.52836 -0.31373,0.31373 -0.88247,2.75191 -1.26386,5.41817 -0.87382,6.10875 -2.684,5.4423 -2.62262,-0.96556 0.0422,-4.40992 -0.12537,-4.75714 -2,-4.14303 -1.12536,0.36865 -6.41916,1.86769 -11.764,3.3312 -5.34484,1.46351 -10.27234,3.21537 -10.95,3.89303 -0.67766,0.67766 -2.37961,1.23386 -3.78211,1.23601 -1.4025,0.002 -6.15,2.21736 -10.55,4.92272 -4.4,2.70536 -10.64846,6.5502 -13.88546,8.5441 -3.237,1.99389 -8.2634,4.24464 -11.16977,5.00165 -5.76172,1.50074 -9.9726,3.85479 -10.81303,6.04492 -0.29491,0.76852 -2.2782,2.49699 -4.40731,3.84103 -2.94836,1.86122 -4.3786,3.76989 -6.00013,8.00717 -1.86426,4.87161 -2.20787,8.45902 -2.76323,28.84897 -0.60721,22.29335 -0.80387,24.05061 -4.61547,41.24076 -2.18969,9.87537 -4.18607,18.28664 -4.43642,18.69171 -0.25035,0.40507 -1.77129,5.9121 -3.37989,12.23783 -3.03413,11.93163 -6.34727,20.91349 -8.76952,23.774 -0.80624,0.95212 -2.22137,7.76821 -3.32186,16 -1.05448,7.88768 -2.64493,19.36674 -3.53432,25.50903 -0.8894,6.14228 -1.45655,14.01728 -1.26034,17.5 0.32399,5.75089 0.16936,6.35903 -1.68441,6.62439 -1.12263,0.1607 -2.36013,-0.0268 -2.75,-0.41666 z m 152.249,-146.79629 c 1.94819,-1.88142 6.0069,-5.03142 9.01936,-7 3.01245,-1.96858 5.03745,-3.58226 4.5,-3.58597 -3.22853,-0.0223 -19.4772,-12.57323 -19.4772,-15.04478 0,-0.52166 -2.8125,-0.95382 -6.25,-0.96035 -3.4375,-0.007 -8.71832,-0.66871 -11.73515,-1.47152 -5.37237,-1.42964 -5.52657,-1.41148 -7.5,0.88334 -1.10817,1.28865 -3.64075,3.53226 -5.62796,4.9858 -3.35956,2.45735 -3.56393,2.90497 -2.91223,6.37853 0.75165,4.00631 5.40802,13.52384 7.34738,15.01789 2.69986,2.07994 12.53674,3.89377 22.1358,4.08165 6.64403,0.13004 7.11759,-0.0181 10.5,-3.28459 z m 25.32694,-23.82874 c -1.16283,-2.33777 -4.23463,-6.63828 -6.82622,-9.55669 l -4.71199,-5.30621 -1.89154,3.11039 -1.89154,3.11039 7.76826,7.36102 c 8.48371,8.03898 11.13843,8.48926 7.55303,1.2811 z M 170.05255,159.35457 c 5.03565,-4.41995 18.68969,-12.69362 21,-12.72496 0.95447,-0.0129 1.53607,-1.05813 1.59918,-2.87385 0.1948,-5.60412 6.47848,-31.94528 10.30412,-43.1948 3.64982,-10.732509 7.73085,-27.313615 9.09733,-36.962159 0.58304,-4.116732 1.51555,-9.179135 2.07225,-11.249784 1.45003,-5.393383 0.24537,-10.372381 -3.08301,-12.742394 l -2.78271,-1.981468 -0.70422,7.955414 c -0.73062,8.253729 -1.31413,9.35203 -5.50294,10.357704 -2.09022,0.501835 -2.76454,1.630829 -4.11396,6.887888 -0.88768,3.45822 -1.91141,6.978956 -2.27494,7.823858 -0.48373,1.124227 0.21726,1.794652 2.61396,2.5 4.38391,1.290184 3.6452,3.039231 -1.12444,2.662301 -4.28433,-0.338578 -4.22507,-0.426562 -7.9484,11.801511 -1.08855,3.575 -2.93803,9.60759 -4.10994,13.405759 -2.175,7.04913 -2.00249,8.13738 1.38661,8.74718 3.23183,0.5815 1.71953,2.35432 -1.90931,2.23822 -3.23811,-0.10361 -3.50539,0.16117 -5.55206,5.5 -1.1826,3.08486 -2.75429,7.18384 -3.49265,9.10884 -0.73835,1.925 -2.11261,5.975 -3.0539,9 -0.94129,3.025 -3.60608,10 -5.92176,15.5 -2.31568,5.5 -4.45616,11.00469 -4.75661,12.23265 -0.49324,2.01583 -0.33731,2.1222 1.60556,1.09527 1.18351,-0.62556 4.17684,-2.91479 6.65184,-5.08718 z M 204.41009,46.467142 c 0.83794,-8.01694 0.81028,-9.853309 -0.14842,-9.853309 -0.81842,0 -4.20912,11.611458 -4.20912,14.414135 0,0.878658 0.82836,1.585865 1.85754,1.585865 1.53891,0 1.96775,-1.054374 2.5,-6.146691 z M 153.47914,216.99421 c 1.04739,-4.25598 3.20633,-7.13919 6.69773,-8.94467 4.5945,-2.37591 6.18333,-0.20154 1.80038,2.46389 -1.83827,1.11792 -4.03585,3.47765 -4.8835,5.24384 -2.08115,4.33632 -4.58852,5.19435 -3.61461,1.23694 z m -7.843,-18.24512 c -1.74292,-2.82011 8.17879,-11.77288 10.48796,-9.46371 0.70819,0.70819 0.15376,1.59448 -1.7702,2.82981 -1.54074,0.98926 -3.96266,3.16147 -5.38203,4.82712 -1.81437,2.12919 -2.80489,2.66569 -3.33573,1.80678 z"
     id="path3759"
     inkscape:connector-curvature="0" />
</svg>
