<?xml version="1.0" encoding="UTF-8" standalone="no"?>
<!-- Created with Inkscape (http://www.inkscape.org/) -->

<svg
   xmlns:dc="http://purl.org/dc/elements/1.1/"
   xmlns:cc="http://creativecommons.org/ns#"
   xmlns:rdf="http://www.w3.org/1999/02/22-rdf-syntax-ns#"
   xmlns:svg="http://www.w3.org/2000/svg"
   xmlns="http://www.w3.org/2000/svg"
   xmlns:sodipodi="http://sodipodi.sourceforge.net/DTD/sodipodi-0.dtd"
   xmlns:inkscape="http://www.inkscape.org/namespaces/inkscape"
   version="1.1"
   id="svg3725"
   width="400"
   height="400"
   viewBox="0 0 400 400"
   sodipodi:docname="F1492.svg"
   inkscape:version="0.92.4 (5da689c313, 2019-01-14)">
  <metadata
     id="metadata3731">
    <rdf:RDF>
      <cc:Work
         rdf:about="">
        <dc:format>image/svg+xml</dc:format>
        <dc:type
           rdf:resource="http://purl.org/dc/dcmitype/StillImage" />
        <dc:title></dc:title>
      </cc:Work>
    </rdf:RDF>
  </metadata>
  <defs
     id="defs3729" />
  <sodipodi:namedview
     pagecolor="#ffffff"
     bordercolor="#666666"
     borderopacity="1"
     objecttolerance="10"
     gridtolerance="10"
     guidetolerance="10"
     inkscape:pageopacity="0"
     inkscape:pageshadow="2"
     inkscape:window-width="2560"
     inkscape:window-height="1377"
     id="namedview3727"
     showgrid="false"
     inkscape:zoom="2.8284271"
     inkscape:cx="151.31072"
     inkscape:cy="182.70342"
     inkscape:window-x="-8"
     inkscape:window-y="-8"
     inkscape:window-maximized="1"
     inkscape:current-layer="svg3725" />
  <path
     style="fill:#000000"
     d="m 140.62676,361.99318 c -0.58711,-1.09702 -1.06747,-4.478 -1.06747,-7.51328 0,-3.03527 -0.40799,-6.55236 -0.90665,-7.81574 -0.49866,-1.26338 -1.83303,-4.59413 -2.96526,-7.40168 -2.00214,-4.9646 -4.9408,-16.64907 -7.77022,-30.89537 -2.27678,-11.46371 -5.50752,-28.68229 -6.28563,-33.5 -0.39974,-2.475 -1.46088,-6.75 -2.35807,-9.5 -0.8972,-2.75 -2.85391,-9.95 -4.34825,-16 l -2.71697,-11 -7.07447,-7.07606 c -5.701315,-5.7026 -9.112533,-8.08029 -17.574473,-12.24979 -18.19116,-8.96343 -28.06533,-15.6847 -30.46195,-20.7352 -3.12447,-6.58433 -1.54557,-25.8994 3.87785,-47.43895 3.57956,-14.21649 3.89187,-14.86611 10.39634,-21.62497 8.22382,-8.54545 13.27593,-15.05359 14.0975,-18.16042 0.60145,-2.27441 1.4935,-2.86635 5.5011,-3.65034 3.58431,-0.70119 5.8015,-0.57586 8.845614,0.5 6.109799,2.15934 8.137139,5.59824 8.590259,14.57137 0.42246,8.36592 -0.84287,12.35652 -6.45708,20.36436 -6.519003,9.29838 -8.396443,14.31832 -8.309023,22.21676 0.10788,9.74634 2.37961,13.81508 10.888203,19.5011 9.92978,6.63574 16.15019,7.69383 17.41898,2.96297 1.17125,-4.36713 0.57064,-16.45113 -1.08099,-21.74933 -1.33678,-4.28823 -1.70514,-9.53604 -1.74999,-24.9315 -0.066,-22.66153 0.1352,-23.33072 10.1198,-33.65295 32.88151,-33.993433 29.91551,-31.631973 47.82338,-38.075943 3.85,-1.38538 9.36697,-3.829152 12.25994,-5.430596 2.89297,-1.601444 8.12656,-3.797122 11.63019,-4.879285 3.50364,-1.082162 6.92926,-2.64114 7.6125,-3.464394 1.96163,-2.363616 8.0375,-1.833597 12.31709,1.074462 6.11899,4.157962 7.24244,10.178443 3.6774,19.706873 -2.75349,7.359355 -6.01819,10.086125 -16.49712,13.778835 -13.88772,4.89395 -19.35323,8.10921 -26.5413,15.613718 -17.51921,18.29047 -24.11917,37.16335 -20.39808,58.32928 0.78388,4.45881 1.33659,5.5 2.91963,5.5 1.41584,0 2.49038,-1.37469 3.90831,-5 1.07559,-2.75 2.97394,-7.25 4.21857,-10 1.24463,-2.75 3.59095,-7.98674 5.21406,-11.6372 3.6641,-8.24081 10.49916,-18.4287 13.40841,-19.98568 1.20317,-0.64392 2.88122,-1.93576 3.729,-2.87076 0.84777,-0.93501 3.5664,-2.30896 6.0414,-3.05323 2.475,-0.74428 7.425,-2.66297 11,-4.26377 3.575,-1.60079 10.16559,-4.16638 14.64576,-5.7013 4.48017,-1.53493 11.90517,-4.59084 16.5,-6.79091 6.93805,-3.322048 9.78323,-4.108108 16.78401,-4.637038 9.06233,-0.68468 12.39514,-1.90423 21.27163,-7.7837 6.75038,-4.47121 8.9779,-4.62309 14.25848,-0.97214 4.65372,3.21754 5.30733,5.07913 5.44045,15.495388 0.1504,11.76841 -3.42545,16.68636 -13.56953,18.66257 -15.42511,3.00501 -30.56048,9.7335 -46.8308,20.81882 -15.76694,10.74236 -22.66786,19.13234 -25.0496,30.45476 -0.82108,3.90326 -2.38331,8.53761 -3.47164,10.29855 -2.24154,3.62689 -2.57687,7.0996 -0.74453,7.71038 2.01689,0.6723 7.34959,-3.03669 10.12569,-7.0426 3.15083,-4.54665 16.94662,-18.15033 25.14008,-24.79 5.22328,-4.23274 6.58254,-4.85781 10.5,-4.82854 2.475,0.0185 12.26357,-0.3671 21.75237,-0.85687 l 17.25237,-0.89051 10.74764,3.49412 c 16.41867,5.3378 15.14978,5.35806 21.66799,-0.34588 l 5.69602,-4.98446 h 8.01873 c 7.52948,0 8.19709,0.17835 10.94181,2.92308 3.61848,3.61847 3.70662,6.42292 0.49832,15.8557 -3.89745,11.45899 -5.77842,22.76783 -6.01858,36.18514 l -0.22438,12.53608 -5.09615,10 c -6.56385,12.88005 -9.84371,22.79467 -11.22927,33.94478 -0.61133,4.91963 -1.58685,11.16115 -2.1678,13.87005 -0.58096,2.7089 -0.78709,6.60874 -0.45807,8.66631 0.47066,2.94331 -0.0416,5.02145 -2.40241,9.74582 -3.13614,6.27595 -4.84272,8.36908 -11.77839,14.44624 -2.30566,2.02026 -5.95383,6.29526 -8.10705,9.5 -2.15322,3.20474 -7.55701,9.8768 -12.00842,14.8268 -9.70256,10.78933 -18.19867,22.82201 -19.04861,26.97778 -0.48595,2.37602 -1.14388,3.02222 -3.07712,3.02222 -2.23979,0 -2.43715,-0.3535 -2.21395,-3.96536 0.31166,-5.04339 8.48605,-17.32215 19.58834,-29.4237 4.34495,-4.73602 9.86353,-11.57323 12.26353,-15.1938 2.39998,-3.62057 7.07493,-8.9411 10.38877,-11.82339 7.418,-6.45198 11.00322,-13.33425 11.03877,-21.19024 0.0134,-2.97193 0.43859,-7.20351 0.94477,-9.40351 0.50617,-2.2 1.42181,-8.05 2.03474,-13 1.36271,-11.00517 4.61975,-20.99224 10.92521,-33.5 l 4.78918,-9.5 0.67636,-13.95232 c 0.68726,-14.17719 2.84162,-26.38936 6.4986,-36.83775 2.01273,-5.75062 2.01318,-5.80344 0.0666,-7.75 -1.42792,-1.42794 -3.32758,-1.95993 -6.99863,-1.95993 -4.50027,0 -5.48876,0.42478 -9.25,3.975 -2.93819,2.77333 -3.69939,3.98255 -2.51798,4 2.84901,0.0421 4.8067,4.05231 4.8067,9.8463 0,4.67094 -0.38926,5.7399 -2.96703,8.14791 -4.16105,3.887 -9.26734,6.09628 -15.6012,6.74999 -4.62686,0.47753 -5.43177,0.86437 -5.43177,2.61051 0,3.80399 -2.21468,14.15106 -3.59474,16.79475 l -1.37002,2.62447 4.73642,0.45511 c 4.93549,0.47424 12.19435,4.36392 12.21596,6.54596 0.019,1.9209 -2.61413,1.49759 -7.77547,-1.25 -4.94115,-2.63038 -6.89045,-2.99087 -8.98488,-1.66162 -1.29762,0.82355 -5.98201,17.41947 -8.23121,29.16162 -0.98026,5.11759 -1.88125,7.04632 -4.23636,9.06874 l -2.99129,2.56875 6.2588,5.93125 c 7.36355,6.97818 13.97279,15.02928 13.97279,17.02106 0,2.64047 -3.49268,1.40729 -5.85999,-2.06904 -1.298,-1.90606 -5.90261,-6.85015 -10.23247,-10.98688 l -7.87247,-7.52131 -5.89125,2.99372 c -8.116,4.12425 -11.77374,3.92643 -20.99693,-1.13555 l -7.52372,-4.12925 -9.03521,0.68207 c -4.96937,0.37513 -9.27208,1.03901 -9.56159,1.47528 -0.28951,0.43627 -1.65138,1.077 -3.02638,1.42385 -3.56709,0.8998 -10.49439,7.13674 -13.34468,12.01475 -6.65927,11.39674 -9.34568,32.10299 -6.1837,47.66256 1.81518,8.93217 5.16601,18 6.65152,18 0.48227,0 0.87686,0.675 0.87686,1.5 0,0.90746 -0.92757,1.5 -2.34813,1.5 -2.7063,0 -4.57048,-3.52813 -7.39726,-14 -1.33808,-4.95697 -1.74661,-10.29823 -1.72093,-22.5 0.0294,-13.97423 0.33175,-16.94027 2.38786,-23.42649 1.2948,-4.08457 3.27895,-9.03457 4.40923,-11 1.99848,-3.47514 2.00044,-3.52627 0.0711,-1.85767 -1.09115,0.94371 -4.80566,3.21733 -8.25447,5.05249 -8.43779,4.48986 -14.10589,9.49685 -20.76118,18.33966 -5.34702,7.10452 -8.38627,9.19719 -8.38627,5.77434 0,-2.32718 10.16236,-15.49513 15.41327,-19.97185 2.45499,-2.09302 7.28748,-5.30811 10.73887,-7.14464 3.45138,-1.83654 8.31659,-5.26719 10.81155,-7.62369 4.57434,-4.32041 9.35806,-6.64215 13.68558,-6.64215 1.6507,0 2.35078,-0.57126 2.35078,-1.91821 0,-1.05502 0.2402,-2.54416 0.53377,-3.3092 0.55294,-1.44095 -8.48828,-4.04676 -18.78377,-5.41375 -3.28743,-0.43649 -4.75,-1.09492 -4.75,-2.13836 0,-1.25858 1.11523,-1.40076 6.75,-0.86052 3.7125,0.35593 9.06048,1.2661 11.8844,2.02259 l 5.1344,1.37543 0.54301,-5.12899 c 0.49346,-4.66093 0.29869,-5.33582 -2.1344,-7.3954 -1.47257,-1.24652 -4.36491,-3.02062 -6.42741,-3.94245 -2.0625,-0.92182 -3.75,-2.32331 -3.75,-3.11443 0,-2.14934 6.08325,-0.87176 10.66115,2.239 4.24313,2.88329 5.02745,2.53098 6.97461,-3.13293 1.19802,-3.48482 1.11246,-4.06485 -1.09067,-7.39402 -1.31488,-1.9869 -4.11292,-4.50579 -6.21789,-5.59753 -3.71459,-1.92656 -5.75978,-5.29123 -3.21625,-5.29123 2.9168,0 10.13133,4.46266 12.24633,7.57516 l 2.28406,3.36129 5.92933,-6.5922 c 3.26113,-3.62571 8.06683,-8.9424 10.67933,-11.81485 2.6125,-2.87246 4.75,-5.7066 4.75,-6.2981 0,-0.5915 -1.8,-2.61619 -4,-4.4993 -2.2,-1.88312 -4,-3.94319 -4,-4.57793 0,-2.10655 3.88359,-1.19467 7.2152,1.69417 3.12333,2.70823 3.60433,2.81397 9.7848,2.15105 3.575,-0.38346 7.53688,-1.02823 8.80417,-1.43283 l 2.30418,-0.73562 -2.55418,-3.3487 c -5.09729,-6.6829 -1.85272,-9.1721 3.36628,-2.58257 l 3.08852,3.89956 12.74551,0.74459 c 14.5133,0.84787 21.27049,-0.12954 26.78057,-3.87374 l 3.60634,-2.45057 -4.32069,-1.52091 c -2.37638,-0.8365 -7.02069,-2.38127 -10.32069,-3.43283 -5.92815,-1.88903 -5.99753,-1.95454 -5.79358,-5.4707 0.20298,-3.49963 0.10328,-3.5967 -6,-5.8415 -7.28313,-2.67874 -7.89306,-2.71055 -30.76123,-1.60411 l -17.5548,0.84936 -11.22949,9.96574 c -6.17622,5.48116 -13.47944,12.82875 -16.22938,16.32798 -4.92945,6.27261 -11.18653,10.50756 -15.52475,10.50756 -2.81616,0 -6.21705,-2.66196 -6.58838,-5.15689 -0.31973,-2.14825 -5.70557,-5.40567 -17.59685,-10.64276 -2.87185,-1.2648 -5.22155,-2.9523 -5.22155,-3.75 0,-1.87859 3.08335,-1.85216 6.66896,0.0572 1.55707,0.82913 5.53104,2.71892 8.83104,4.19952 3.3,1.4806 6.225,2.82345 6.5,2.98411 1.21077,0.70734 5.14121,-8.23171 6.53705,-14.86726 0.84045,-3.99538 2.3608,-8.17773 3.37855,-9.29411 1.01775,-1.11638 2.60401,-3.52004 3.52501,-5.34148 l 1.67456,-3.3117 -5.05758,-2.13677 c -5.2838,-2.23237 -6.72649,-4.73986 -2.72707,-4.73986 1.28179,0 4.4176,1.05661 6.96846,2.34802 l 4.63794,2.34803 2.28154,-2.43988 c 2.60866,-2.7897 18.66607,-14.1448 23.53154,-16.64048 1.7875,-0.91688 3.24792,-1.99299 3.24537,-2.39137 -0.003,-0.39838 -1.35254,-2.16241 -3,-3.92009 -3.57516,-3.81434 -3.78698,-5.31392 -0.74537,-5.2767 1.39453,0.0171 3.20052,1.33733 4.75,3.47247 2.41856,3.33273 5.27878,4.47597 6.45139,2.57866 0.7204,-1.16565 13.9095,-5.54317 22.90467,-7.60218 11.06747,-2.53336 13.64394,-5.27592 13.64394,-14.52353 0,-5.286218 -1.54572,-6.433338 -4.92126,-3.652208 -3.28863,2.709518 -13.94677,8.699258 -15.47947,8.699258 -0.8796,0 -1.59927,-0.79999 -1.59927,-1.77776 0,-0.97777 -0.89858,-2.54715 -1.99685,-3.48751 -3.3019,-2.827178 -15.69989,-1.40819 -24.50315,2.80445 -3.85,1.84235 -11.275,4.90339 -16.5,6.80231 -5.225,1.89892 -12.425,4.75889 -16,6.3555 -3.575,1.5966 -8.48948,3.54036 -10.92106,4.31947 -2.43158,0.77911 -5.44863,2.44414 -6.70455,3.70005 -1.25591,1.25592 -2.70108,2.28349 -3.21148,2.28349 -1.35336,0 -8.6374,11.5315 -11.68579,18.5 -1.4436,3.3 -3.66135,8.25 -4.92833,11 -1.26699,2.75 -3.07129,7.13825 -4.00955,9.75167 -1.9689,5.48414 -4.6544,7.74833 -9.19008,7.74833 -2.93841,0 -14.57528,5.93882 -15.92909,8.12934 -1.15635,1.871 -3.5583,0.86457 -3.23962,-1.35742 0.21656,-1.50996 2.26123,-3.36321 6.34394,-5.75 l 6.02439,-3.52192 -0.97731,-5.5 c -0.53752,-3.025 -0.9985,-9.325 -1.02439,-14 -0.047,-8.48605 -0.0522,-8.50278 -3.19054,-10.19484 -1.7289,-0.93216 -5.4414,-2.44646 -8.25,-3.3651 -3.15543,-1.03209 -5.10654,-2.24824 -5.10654,-3.18297 0,-2.0535 6.6337,-0.98871 13.08984,2.10108 l 4.77174,2.28368 0.65233,-4.74297 c 1.17125,-8.516 9.99771,-24.20595 17.91461,-31.84505 1.96431,-1.89539 3.57148,-3.72282 3.57148,-4.060948 0,-0.33813 -2.25,-1.19144 -5,-1.89624 -3.92279,-1.00538 -5,-1.71579 -5,-3.29746 0,-2.18962 0.0751,-2.18453 9.18379,0.62211 4.13707,1.27474 4.83044,1.26649 5.94017,-0.0707 1.86844,-2.25134 11.26607,-6.7536 21.70744,-10.3997 10.18823,-3.55771 12.1092,-5.245295 14.63838,-12.859955 1.96747,-5.92349 0.94203,-9.309544 -3.51775,-11.615784 -2.89668,-1.497936 -3.27199,-1.495613 -4.95853,0.03069 -1.00356,0.908207 -4.45014,2.478458 -7.65908,3.489446 -3.20893,1.010988 -8.98442,3.421138 -12.83442,5.355888 -6.36956,3.20092 -15.68151,6.99549 -24.29971,9.90202 -3.9158,1.320605 -37.46098,35.523093 -40.65585,41.452463 -1.81676,3.37174 -2.04384,5.57612 -2.03907,19.79429 0.004,12.47761 0.4101,17.44161 1.84383,22.54832 1.42145,5.06302 1.76047,9.10961 1.49463,17.84029 -0.31821,10.45071 -0.51971,11.43424 -2.70461,13.20168 -1.33518,1.08006 -3.94179,1.9207 -6,1.93502 -3.50937,0.0244 -3.75922,0.27416 -7.00254,7 -3.22183,6.68134 -6.13668,9.09249 -6.13668,5.07629 0,-1.04415 1.28526,-4.34177 2.85613,-7.32805 l 2.85613,-5.42958 -4.6033,-2.42196 c -2.53181,-1.33208 -6.960714,-4.33446 -9.842003,-6.67196 -2.88128,-2.3375 -5.69376,-4.25 -6.24994,-4.25 -0.55619,0 -2.75459,1.575 -4.88533,3.5 -4.23513,3.82619 -6.13168,4.39871 -6.13168,1.85102 0,-2.35858 6.49933,-8.35102 9.05742,-8.35102 1.6936,0 1.98389,-0.37567 1.35223,-1.75 -0.44238,-0.9625 -1.05303,-5.575 -1.35699,-10.25 l -0.55266,-8.5 -5.75,-0.91186 c -3.99314,-0.63324 -5.75,-1.36315 -5.75,-2.38889 0,-1.19985 1.13153,-1.37442 6.02983,-0.93026 l 6.02984,0.54677 2.60469,-5.15788 c 1.43257,-2.83684 4.0061,-7.18288 5.71893,-9.65788 6.555673,-9.47274 8.013303,-15.72171 5.224273,-22.39679 -0.93838,-2.24587 -2.442275,-3.69854 -4.611983,-4.45491 -3.66241,-1.27672 -5.38153,-0.603 -7.80076,3.05708 -3.35275,5.07241 -10.19448,13.3791 -14.61157,17.74021 -5.22935,5.16309 -5.64904,6.08119 -9.16735,20.05441 -5.25746,20.88039 -6.69241,36.02885 -3.91695,41.35041 1.75146,3.35818 5.22997,6.24414 11.47235,9.51806 2.49078,1.30633 5.22066,2.97862 6.06639,3.71619 0.84574,0.73758 5.93688,3.42497 11.31366,5.97197 9.634563,4.56394 19.716593,12.51695 24.649013,19.44388 1.05557,1.48241 3.30271,8.27624 4.99365,15.09739 1.69095,6.82116 3.55742,13.5271 4.14772,14.9021 0.59029,1.375 1.43199,4.75 1.87044,7.5 0.83559,5.24095 3.98005,22.08888 6.34569,34 2.99022,15.05591 5.70839,25.54469 8.49597,32.78392 3.6477,9.47293 4.83824,24.9361 1.96363,25.50422 -0.92539,0.18289 -2.16289,-0.56504 -2.75,-1.66207 z m 136.2873,-106.67802 c 2.82988,-1.40358 7.20296,-3.9391 9.71796,-5.6345 4.47644,-3.01764 4.61001,-3.26397 6.34325,-11.69805 2.40526,-11.70419 7.26248,-29.94926 8.94914,-33.6155 1.62301,-3.5279 3.5754,-13.49145 2.95864,-15.09871 -0.23568,-0.61417 -3.80491,-1.40208 -7.93162,-1.75092 -6.05145,-0.51153 -8.64711,-0.24885 -13.41608,1.35769 -3.25213,1.09557 -7.61646,1.99194 -9.69849,1.99194 -3.50859,0 -4.33391,0.6309 -11.28155,8.62394 -4.12281,4.74316 -10.25164,11.60566 -13.61963,15.25 -3.38964,3.66777 -6.73083,8.41191 -7.48368,10.62606 -0.74805,2.2 -2.22847,5.22252 -3.28984,6.71671 -1.3741,1.93445 -2.06017,4.96939 -2.38265,10.54002 l -0.45288,7.82331 9.97728,-0.40074 9.97728,-0.40074 7.38905,4.0975 c 4.06398,2.25362 7.7737,4.10345 8.24382,4.11072 0.47013,0.007 3.17013,-1.13516 6,-2.53873 z M 329.5593,171.4489 c 0,-1.95125 -1.61939,-3.58179 -3.5573,-3.58179 -1.28883,0 -2.71745,-0.66853 -3.17472,-1.48563 -1.00601,-1.79765 -10.3521,-2.57647 -10.94413,-0.91199 -0.21798,0.61283 2.17652,1.87239 5.39202,2.83632 3.18127,0.95368 6.90913,2.10958 8.28413,2.56868 2.97217,0.99238 4,1.13998 4,0.57441 z M 282.25213,98.695332 c 2.09394,-1.19448 4.48216,-2.73183 5.30716,-3.41634 0.825,-0.6845 2.85,-1.40087 4.5,-1.59193 l 3,-0.34737 -3.26708,-1.7708 -3.26708,-1.7708 -7.00158,4.15956 c -5.63493,3.34765 -6.77885,4.42794 -5.86048,5.53451 1.51541,1.825948 2.11931,1.752918 6.58906,-0.79683 z M 129.55929,248.48 c 0,-0.86613 1.0125,-1.76699 2.25,-2.0019 21.27785,-4.0391 46.15821,-12.29849 53.23852,-17.67328 6.37127,-4.83654 16.32616,-14.70055 19.16445,-18.9895 2.78068,-4.20189 5.34703,-5.18514 5.34703,-2.04862 0,3.84663 -12.86348,17.92609 -22.83561,24.99427 -7.17285,5.08405 -36.68909,14.51086 -51.91439,16.58025 -4.41289,0.59979 -5.25,0.46247 -5.25,-0.86122 z"
     id="path3735"
     inkscape:connector-curvature="0" />
</svg>
