<?xml version="1.0" encoding="UTF-8" standalone="no"?>
<!-- Created with Inkscape (http://www.inkscape.org/) -->

<svg
   xmlns:dc="http://purl.org/dc/elements/1.1/"
   xmlns:cc="http://creativecommons.org/ns#"
   xmlns:rdf="http://www.w3.org/1999/02/22-rdf-syntax-ns#"
   xmlns:svg="http://www.w3.org/2000/svg"
   xmlns="http://www.w3.org/2000/svg"
   xmlns:sodipodi="http://sodipodi.sourceforge.net/DTD/sodipodi-0.dtd"
   xmlns:inkscape="http://www.inkscape.org/namespaces/inkscape"
   version="1.1"
   id="svg3773"
   width="392.53333"
   height="599.46667"
   viewBox="0 0 392.53333 599.46667"
   sodipodi:docname="Z.svg"
   inkscape:version="0.92.4 (5da689c313, 2019-01-14)">
  <metadata
     id="metadata3779">
    <rdf:RDF>
      <cc:Work
         rdf:about="">
        <dc:format>image/svg+xml</dc:format>
        <dc:type
           rdf:resource="http://purl.org/dc/dcmitype/StillImage" />
        <dc:title></dc:title>
      </cc:Work>
    </rdf:RDF>
  </metadata>
  <defs
     id="defs3777" />
  <sodipodi:namedview
     pagecolor="#ffffff"
     bordercolor="#666666"
     borderopacity="1"
     objecttolerance="10"
     gridtolerance="10"
     guidetolerance="10"
     inkscape:pageopacity="0"
     inkscape:pageshadow="2"
     inkscape:window-width="2560"
     inkscape:window-height="1377"
     id="namedview3775"
     showgrid="false"
     inkscape:zoom="1.5747331"
     inkscape:cx="146.26984"
     inkscape:cy="264.65091"
     inkscape:window-x="-8"
     inkscape:window-y="-8"
     inkscape:window-maximized="1"
     inkscape:current-layer="svg3773" />
  <path
     style="fill:#000000;stroke-width:1.06666672"
     d="m 117.66185,521.32663 c -3.23792,-2.36763 -1.19811,-5.45341 13.09803,-19.8145 15.10939,-15.17802 24.00722,-22.53312 42.75057,-35.33835 11.81486,-8.07176 14.25055,-10.63254 10.11317,-10.63254 -3.99233,0 -18.56825,-8.94937 -18.56825,-11.4006 0,-2.08952 2.84419,-1.73493 11.96048,1.49115 l 8.22715,2.91143 5.63952,-1.91774 c 3.10173,-1.05475 11.14953,-5.60019 17.88399,-10.10099 l 12.2445,-8.18325 2.41286,-10.13333 c 1.35458,-5.68884 2.14755,-11.56543 1.80795,-13.39847 -0.33271,-1.79582 -2.71258,-6.78731 -5.28861,-11.09217 -5.46934,-9.13996 -11.23607,-25.97176 -18.04064,-52.65658 -7.60382,-29.81911 -10.61455,-37.82007 -18.74876,-49.82454 -8.52934,-12.58763 -16.87538,-17.34894 -26.51169,-15.12461 -8.9521,2.06639 -21.01546,10.19501 -22.84788,15.39553 -1.07091,3.03928 1.03511,3.18553 6.439,0.44718 10.56263,-5.35249 24.41928,-6.86423 31.12641,-3.39585 5.73557,2.96599 6.8878,5.91697 6.18712,15.8458 -1.0427,14.77507 -1.92709,15.83898 -15.29222,18.39614 -14.92239,2.85513 -25.15265,1.57016 -27.99949,-3.51686 -2.18384,-3.90228 -2.49713,0.0341 -0.71877,9.03122 3.00677,15.21188 7.58861,27.83641 14.43014,39.75987 3.53453,6.16 7.95756,14.30009 9.82896,18.08907 l 3.40254,6.88908 -1.86065,12.84425 c -2.50488,17.2913 -3.89342,18.45304 -5.47129,4.5776 -0.3836,-3.37333 -1.12951,-6.13333 -1.65758,-6.13333 -0.52806,0 -1.72841,2.76 -2.66744,6.13333 -0.93904,3.37334 -2.04665,7.25593 -2.46136,8.62798 -0.41471,1.37207 -0.73981,-6.54793 -0.72246,-17.6 0.0283,-17.99944 -0.19088,-20.53952 -2.10178,-24.36131 -2.81177,-5.62353 -6.39504,-6.03261 -15.73729,-1.79663 -13.00325,5.89595 -18.46023,12.95403 -21.59418,27.92996 -2.42546,11.59036 -3.70652,16 -4.64818,16 -1.50408,0 -4.420351,-11.27512 -4.420351,-17.09031 0,-10.66554 5.758491,-18.73934 22.540071,-31.60273 11.7945,-9.0407 14.43654,-12.58175 12.52223,-16.78319 -1.51983,-3.33566 -4.63625,-4.55407 -15.25884,-5.96567 -4.65478,-0.61855 -9.93478,-1.98378 -11.73334,-3.03384 -4.85012,-2.83166 -13.001381,-13.48051 -17.467941,-22.8202 -2.16453,-4.5261 -4.28576,-8.2461 -4.71384,-8.26667 -3.33349,-0.16014 -14.90862,38.76179 -25.8607,86.9579 -0.52431,2.30727 -17.68414,25.82655 -25.84043,35.41689 -5.74496,6.75507 -8.35823,8.39372 -10.52206,6.5979 -0.8425,-0.69921 -1.53182,-2.12139 -1.53182,-3.1604 0,-1.03901 6.06851,-9.74024 13.48559,-19.33606 7.41707,-9.59583 14.33538,-19.36695 15.37402,-21.71362 1.03864,-2.34666 2.21518,-7.62666 2.61453,-11.73333 1.75992,-18.09774 6.3791,-34.7459 17.60936,-63.46667 7.99207,-20.43926 11.90761,-33.26724 17.09313,-56 3.30865,-14.50477 3.53926,-15.06165 8.0357,-19.40479 8.135871,-7.85845 45.409741,-28.06188 51.772151,-28.06188 4.44984,0 13.76669,3.78796 19.71,8.01349 5.03455,3.57944 5.59451,3.72072 14.83544,3.74293 10.82878,0.026 26.13626,3.02031 33.3886,6.5311 2.85163,1.38045 6.0571,4.15213 8.0159,6.9311 1.79523,2.54692 4.0144,4.85762 4.93149,5.13488 0.91708,0.27727 9.27039,1.25332 18.5629,2.16901 17.87038,1.76096 22.34879,3.14604 27.29046,8.44035 1.42227,1.52377 3.12969,2.77048 3.79428,2.77048 4.41422,0 24.51702,-37.59536 41.06611,-76.8 18.21309,-43.14664 16.76446,-40.3377 25.16722,-48.8 5.22806,-5.26511 8.48336,-7.73144 10.19936,-7.72738 8.39434,0.0198 18.2341,6.06532 24.27108,14.91206 4.85867,7.12001 4.85141,11.78686 -0.0581,37.34865 -2.30546,12.00362 -2.84683,14.0622 -12.06208,45.86667 -11.56564,39.91628 -15.05424,47.06922 -54.10387,110.93333 -5.56011,9.09334 -11.7072,19.17334 -13.66022,22.4 -10.35016,17.10002 -21.70628,33.1176 -26.802,37.80368 -3.15207,2.89869 -12.21105,11.33649 -20.13105,18.75066 -23.72444,22.20921 -27.84708,25.98432 -37.68984,34.51257 -17.14754,14.8575 -34.0185,25.87038 -50.50981,32.97136 -2.4332,1.04773 -8.1837,5.55536 -12.77886,10.017 -19.83443,19.25812 -28.14464,27.0114 -28.9516,27.0114 -0.47417,0 -1.73268,-0.63658 -2.79671,-1.41461 z M 235.8195,419.54124 c 30.43195,-29.31357 36.52531,-35.43037 40.11237,-40.26667 4.44909,-5.99853 11.79016,-18.79908 11.79016,-20.55838 0,-2.71835 -17.65933,-9.15712 -29.86666,-10.88965 -15.67068,-2.22409 -40.90056,-4.42441 -43.43587,-3.78809 -2.5638,0.64348 -2.68016,0.97299 -2.09332,5.92796 0.34176,2.88563 1.96564,8.02045 3.60862,11.41071 3.7583,7.75519 6.3566,9.09586 23.2539,11.99851 7.04,1.20934 14.48,2.5112 16.53333,2.89301 l 3.73334,0.69421 -3.2,0.763 c -1.76,0.41963 -6.84,0.81977 -11.28889,0.88919 -4.44889,0.0694 -8.40717,0.44447 -8.79617,0.83348 -0.389,0.38901 0.731,1.58195 2.48889,2.65099 5.27075,3.20533 4.04111,4.36868 -3.73717,3.5357 -7.71459,-0.82616 -7.74721,-0.79128 -5.68781,6.08233 1.91123,6.37913 5.55106,9.40678 11.43327,9.51033 l 4.92121,0.0866 -3.2,1.45115 c -1.76,0.79814 -5.24471,1.77436 -7.74381,2.16938 -3.80798,0.60192 -4.63253,1.17339 -5.09174,3.52889 -0.73522,3.77125 -4.26537,16.21289 -5.2616,18.54397 -1.73845,4.06779 2.20515,1.51352 11.52795,-7.46666 z m 63.57945,-77.82462 c 2.96436,-4.51548 5.38975,-8.99106 5.38975,-9.94575 0,-0.9547 -1.25823,-2.40919 -2.79607,-3.23222 -1.53785,-0.82303 -8.54542,-7.50414 -15.5724,-14.84692 -13.94284,-14.56942 -20.14514,-20.00397 -23.90777,-20.94834 -1.9382,-0.48646 -4.49881,1.10363 -12.35111,7.66977 -11.89086,9.94324 -18.97265,16.58532 -18.97265,17.79465 0,0.48898 3.72,0.55293 8.26667,0.14209 7.5079,-0.6784 8.13687,-0.59009 6.85261,0.96209 -1.321,1.59657 -5.83625,3.25616 -20.60366,7.57295 -6.35506,1.8577 -7.94949,3.0702 -8.5476,6.50011 -0.32849,1.88376 0.72049,2.30245 9.76531,3.89767 5.57334,0.98297 16.37334,2.58036 24,3.54977 8.71623,1.10791 15.39221,2.54698 17.97392,3.87444 6.64367,3.41605 21.22678,7.28436 23.303,6.18135 0.99564,-0.52895 4.23564,-4.65619 7.2,-9.17166 z M 112.0964,340.84494 c -0.34394,-0.8963 -1.52888,-2.11318 -2.63319,-2.70419 -2.68038,-1.4345 -2.81608,1.62373 -0.14117,3.18172 2.65244,1.5449 3.4948,1.39992 2.77436,-0.47753 z m 5.01056,-4.5037 c 0.0284,-0.44 0.17139,-12.56 0.3178,-26.93333 0.25483,-25.01806 0.41196,-26.78361 3.68173,-41.37062 1.87855,-8.3805 3.41555,-16.32591 3.41555,-17.65647 0,-2.50654 -0.16648,-2.38931 16.90738,-11.90625 7.56479,-4.2166 8.83944,-6.13822 5.47621,-8.25568 -1.1846,-0.74582 -5.71662,1.00119 -16.96519,6.53976 -8.44184,4.15658 -15.59942,7.80805 -15.90573,8.11436 -0.30632,0.30632 0.31899,1.19743 1.38958,1.98026 1.84796,1.35127 1.8251,1.45508 -0.45186,2.05052 -1.3371,0.34966 -2.08703,1.13095 -1.69477,1.76565 0.46266,0.7486 -1.11449,1.13846 -4.60543,1.13846 -7.09592,0 -8.43582,0.65075 -10.703291,5.19822 -4.31098,8.6458 -9.24912,36.45633 -8.29244,46.70123 0.87991,9.42276 3.27498,13.92589 9.44758,17.76299 5.554021,3.45256 5.929251,4.08077 3.594691,6.01828 -2.38597,1.98018 -0.88301,4.01577 5.10454,6.91353 5.51249,2.66785 9.18715,3.43538 9.28365,1.93909 z m 8.98597,-6.777 c -1.4701,-5.57291 -2.23431,-7.04847 -3.16727,-6.11551 -0.8059,0.80588 2.61242,11.55918 3.67449,11.55918 0.51083,0 0.28259,-2.44966 -0.50722,-5.44367 z m 91.53214,-12.88519 c 3.20872,-4.50754 6.94151,-10.86754 8.29511,-14.13333 1.3536,-3.2658 2.76437,-5.93781 3.13505,-5.93781 0.37069,0 1.74556,1.90662 3.05527,4.23694 l 2.38131,4.23696 5.90743,-4.81168 c 15.32595,-12.48315 25.0582,-21.4303 25.58233,-23.5186 0.70739,-2.81848 -3.45156,-12.82549 -5.68681,-13.68324 -0.89662,-0.34407 -7.45228,-0.87756 -14.56814,-1.18555 -7.11585,-0.30799 -14.49792,-0.75064 -16.40459,-0.98368 -4.5491,-0.556 -4.3902,0.59303 0.44188,3.19527 4.31539,2.324 7.81465,7.20705 7.8208,10.91357 0.002,1.32 -0.21407,2.4 -0.48058,2.4 -0.26652,0 -3.74652,-2.46438 -7.73334,-5.4764 -11.67389,-8.81956 -27.9504,-15.05041 -34.81483,-13.32755 -3.19938,0.80298 -15.24618,11.63523 -16.16725,14.53726 -0.44632,1.40625 2.21227,6.03674 8.99395,15.66486 10.05155,14.27042 15.95452,24.57618 18.21559,31.80184 0.73432,2.34666 1.83135,4.89075 2.43783,5.65353 1.3887,1.74657 1.85891,1.27667 9.58899,-9.58239 z m 94.90014,3.66219 c 2.04555,-3.37333 7.60797,-12.47815 12.36093,-20.23292 11.74412,-19.16129 16.85647,-29.41368 14.96237,-30.00573 -2.6494,-0.82813 -32.24837,-16.29277 -35.18159,-18.38141 -1.58082,-1.12563 -3.54083,-2.04661 -4.3556,-2.04661 -0.81476,0 -6.45933,6.52232 -12.5435,14.49404 -6.08417,7.97172 -12.66344,15.77172 -14.6206,17.33333 -1.95715,1.56161 -3.54812,3.5593 -3.53549,4.4393 0.0127,0.88 2.6796,3.50346 5.92656,5.82993 6.25884,4.48448 9.36688,7.9838 18.50682,20.83674 7.2444,10.18737 10.68096,13.86666 12.95183,13.86666 1.06006,0 3.34898,-2.53943 5.52827,-6.13333 z m -149.13928,-2.3736 c 1.50486,-0.57215 2.73611,-1.59215 2.73611,-2.26667 0,-1.65494 -6.40168,-0.34853 -8.48095,1.73074 -1.39048,1.39048 -1.30608,1.5762 0.71626,1.5762 1.26087,0 3.52373,-0.46812 5.02858,-1.04027 z m -4.19723,-3.86004 c 5.86667,-2.12177 11.38667,-4.21623 12.26667,-4.65434 2.21872,-1.1046 2.57585,-4.91365 1.08537,-11.5763 -1.64457,-7.35147 -3.90968,-8.54294 -13.15785,-6.92115 -13.99724,2.45459 -24.46873,8.14268 -25.567,13.88791 -1.09908,5.74945 5.26914,12.98641 11.50615,13.07579 1.76,0.0253 8,-1.69013 13.86666,-3.81191 z m -26.45342,-32.976 c 9.45998,-5.72329 16.89599,-8.1471 26.98676,-8.7965 l 9.06666,-0.58349 12.1288,-11.57185 c 10.76134,-10.26719 12.56525,-11.57879 16,-11.63333 2.12916,-0.0338 5.7912,-0.42773 8.13787,-0.87538 l 4.26666,-0.8139 -4.10843,-1.78217 c -8.12786,-3.52572 -15.09272,-5.00016 -23.55183,-4.98585 -8.94753,0.0151 -13.4064,0.71983 -13.4064,2.11877 0,0.44983 1.0083,1.08153 2.24066,1.4038 3.26726,0.85441 1.59536,2.5679 -3.31505,3.39751 -3.26877,0.55225 -5.38889,0.17533 -9.08895,-1.61583 -3.30101,-1.598 -5.74371,-2.10992 -7.73119,-1.62026 -4.60954,1.13568 -16.12118,7.92816 -17.78734,10.49548 -3.08164,4.74839 -8.69373,30.60597 -6.64266,30.60597 0.33973,0 3.40173,-1.68434 6.80444,-3.74297 z m 211.97859,-23.19036 c 3.42142,-7.74314 9.1415,-25.88218 9.1415,-28.98877 0,-2.99715 -6.29095,-8.90639 -16.96167,-15.93249 -9.60271,-6.32287 -16.1818,-9.56194 -17.25073,-8.49301 -1.05773,1.05772 -11.83002,24.73724 -13.86133,30.46978 -1.35736,3.83058 -1.2887,4.12057 1.73014,7.30857 5.02737,5.30906 15.53111,12.38534 25.15975,16.94991 4.90445,2.32502 9.06358,4.24051 9.24254,4.25665 0.17894,0.0161 1.43885,-2.49064 2.7998,-5.57064 z m 13.51391,-37.86667 c 5.43821,-14.24785 12.82002,-48.15266 13.06331,-60 0.18769,-9.14044 -1.75731,-13.62844 -7.42829,-17.14034 -5.61825,-3.47925 -11.92838,-2.20988 -17.09542,3.439 -3.84539,4.20396 -20.15336,38.58642 -22.23403,46.8765 -0.57463,2.28953 0.15658,3.58221 4.45054,7.86792 6.19508,6.18317 25.63033,21.89025 27.08603,21.89025 0.57104,0 1.54208,-1.32 2.15786,-2.93333 z M 174.65537,378.00433 c -4.87695,-0.81638 -12.82341,-3.69559 -12.34337,-4.47232 0.26024,-0.42109 2.42397,-0.88072 4.80828,-1.02141 3.33186,-0.19658 4.33509,0.13066 4.33509,1.41409 0,1.00464 1.28364,1.92661 3.2222,2.31432 2.7168,0.54336 6.05338,2.78554 3.50742,2.35697 -0.47462,-0.0799 -2.06295,-0.34613 -3.52962,-0.59165 z m 12.0445,-14.67767 c -1.03974,-1.18329 -0.62742,-1.96314 2.13333,-4.03501 5.60126,-4.20358 6.08884,-4.35539 6.08884,-1.89577 0,2.01437 -4.67202,7.53996 -6.28909,7.43812 -0.35434,-0.0223 -1.22423,-0.70062 -1.93308,-1.50734 z"
     id="path3783"
     inkscape:connector-curvature="0" />
</svg>
