<?xml version="1.0" encoding="UTF-8" standalone="no"?>
<!-- Created with Inkscape (http://www.inkscape.org/) -->

<svg
   xmlns:dc="http://purl.org/dc/elements/1.1/"
   xmlns:cc="http://creativecommons.org/ns#"
   xmlns:rdf="http://www.w3.org/1999/02/22-rdf-syntax-ns#"
   xmlns:svg="http://www.w3.org/2000/svg"
   xmlns="http://www.w3.org/2000/svg"
   xmlns:sodipodi="http://sodipodi.sourceforge.net/DTD/sodipodi-0.dtd"
   xmlns:inkscape="http://www.inkscape.org/namespaces/inkscape"
   version="1.1"
   id="svg3713"
   width="400"
   height="400"
   viewBox="0 0 400 400"
   sodipodi:docname="N1240.svg"
   inkscape:version="0.92.4 (5da689c313, 2019-01-14)">
  <metadata
     id="metadata3719">
    <rdf:RDF>
      <cc:Work
         rdf:about="">
        <dc:format>image/svg+xml</dc:format>
        <dc:type
           rdf:resource="http://purl.org/dc/dcmitype/StillImage" />
        <dc:title></dc:title>
      </cc:Work>
    </rdf:RDF>
  </metadata>
  <defs
     id="defs3717" />
  <sodipodi:namedview
     pagecolor="#ffffff"
     bordercolor="#666666"
     borderopacity="1"
     objecttolerance="10"
     gridtolerance="10"
     guidetolerance="10"
     inkscape:pageopacity="0"
     inkscape:pageshadow="2"
     inkscape:window-width="2560"
     inkscape:window-height="1377"
     id="namedview3715"
     showgrid="false"
     inkscape:zoom="1.6683301"
     inkscape:cx="318.34835"
     inkscape:cy="174.03867"
     inkscape:window-x="-8"
     inkscape:window-y="-8"
     inkscape:window-maximized="1"
     inkscape:current-layer="svg3713" />
  <path
     style="fill:#000000"
     d="m 232.08279,375.55363 c -0.25208,-0.25208 -3.58958,-0.91012 -7.41667,-1.46232 -12.66376,-1.82721 -13.61414,-2.18251 -18.25718,-6.82556 l -4.47111,-4.47111 0.79423,-22.64134 c 1.04743,-29.85909 0.92891,-39.93974 -0.5625,-47.8439 -1.49241,-7.90946 -2.26593,-6.86844 -3.86571,5.20256 -1.58286,11.94334 -5.88698,33.55748 -7.11636,35.73643 -0.53884,0.95504 -0.97971,2.57279 -0.97971,3.59501 0,1.02222 -0.88433,2.65889 -1.96518,3.63705 -1.90035,1.71979 -2.00558,1.68978 -3.19006,-0.90986 -0.95601,-2.09821 -0.96365,-3.66504 -0.0348,-7.13783 0.65453,-2.44723 1.19006,-5.82263 1.19006,-7.50089 0,-1.67827 0.41735,-3.83122 0.92744,-4.78433 0.5101,-0.95312 1.67921,-6.43604 2.59803,-12.18426 2.72612,-17.05483 3.07703,-18.8539 6.42722,-32.95132 3.46876,-14.59637 3.46893,-14.5385 -0.10639,-37.5 -0.51384,-3.3 -1.17925,-8.0834 -1.47868,-10.62977 -0.5426,-4.61425 -0.55396,-4.62617 -3.38833,-3.55631 -2.753,1.03914 -13.96982,-0.3636 -27.97929,-3.499 -2.475,-0.55392 -11.25,-1.34667 -19.5,-1.76167 -16.49212,-0.8296 -20.35708,-1.60289 -26.72146,-5.34634 -6.82759,-4.0159 -12.74219,-12.09962 -12.8145,-17.51407 l -0.036,-2.69284 -2.21403,2.70478 c -1.21772,1.48763 -3.091748,4.41263 -4.164508,6.5 -1.07276,2.08737 -2.4689,4.47022 -3.10254,5.29522 -0.63363,0.825 -2.82675,5.55 -4.87358,10.5 -5.87661,14.21184 -13.81879,30.41208 -15.77941,32.18642 -0.98669,0.89296 -1.79399,2.01881 -1.79399,2.5019 0,0.94987 -6.99262,8.23937 -7.34964,7.66168 -0.11896,-0.1925 -0.7733,-1.08236 -1.45408,-1.97747 -1.03876,-1.36578 -0.1998,-3.46148 5.21771,-13.03361 3.55052,-6.27338 7.67964,-14.31602 9.17583,-17.87253 3.85158,-9.15539 8.18185,-18.71759 10.85323,-23.96639 1.25966,-2.475 3.52854,-7.875 5.04197,-12 1.51342,-4.125 3.26092,-8.58751 3.88333,-9.91668 0.62241,-1.32918 1.06767,-5.37918 0.98947,-9 -0.13197,-6.11034 -1.27428,-10.45653 -9.37103,-35.65432 -0.54274,-1.68905 -0.97933,-12.26405 -0.9702,-23.5 0.0152,-18.702898 0.20635,-20.935958 2.26234,-26.428998 3.03972,-8.12125 6.93264,-13.892144 11.435318,-16.951792 2.06251,-1.401513 4.08326,-2.548205 4.49055,-2.548205 0.40729,0 3.11533,-1.080169 6.01786,-2.400376 2.90254,-1.320206 7.67568,-3.221989 10.60698,-4.226183 2.94223,-1.007936 8.09366,-4.091081 11.5,-6.882777 13.92649,-11.413572 17.21369,-12.515411 40.17036,-13.464731 l 17,-0.702996 8.25156,-4.252032 c 9.87139,-5.086728 17.20146,-6.987375 27.13242,-7.035283 8.23467,-0.03973 13.89742,1.295784 19.11602,4.508341 7.45557,4.589631 10.29065,5.05266 19.42482,3.172485 12.27906,-2.527518 28.07104,-2.305509 37.00423,0.520218 13.36516,4.227637 16.74826,9.562739 33.49676,52.824031 1.18405,3.05839 4.43953,9.58339 7.23442,14.499998 2.79488,4.91662 7.09484,12.7643 9.55546,17.4393 2.46062,4.675 6.00621,11.24324 7.87909,14.5961 4.36043,7.80613 4.41548,12.38226 0.28961,24.07173 -4.28619,12.14368 -9.33649,19.22787 -17.39047,24.39404 -11.65844,7.47824 -15.8398,10.53638 -17.15891,12.5496 -2.27798,3.47663 -4.29751,19.56835 -4.3158,34.38853 -0.017,13.74898 -0.60615,20.07843 -4.09577,44 -8.03539,55.08313 -14.38635,73.03999 -28.55959,80.75 -5.09735,2.77287 -16.99499,3.13772 -22.8291,0.70007 -2.86587,-1.19743 -4.03077,-1.2833 -5.12213,-0.37755 -0.77694,0.6448 -1.41262,1.54471 -1.41262,1.99979 0,1.54892 -5.79383,9.41887 -9.15257,12.43225 -1.84109,1.65177 -4.6061,3.56397 -6.14448,4.24933 -2.66744,1.18836 -11.86267,1.75305 -12.82794,0.78778 z m 13.50955,-8.87408 c 1.37404,-0.9003 3.98712,-3.78131 5.80685,-6.40225 2.88785,-4.15936 3.30621,-5.55614 3.28986,-10.98407 -0.0107,-3.56684 -0.54378,-6.74378 -1.25,-7.45 -0.6772,-0.6772 -1.23127,-2.08627 -1.23127,-3.13127 0,-3.46245 -6.07928,-8.35128 -12.02878,-9.67329 -4.54765,-1.01051 -6.90607,-0.9468 -13.97122,0.37738 -7.1069,1.332 -8.95071,2.0876 -11.25,4.61028 -1.5125,1.65945 -2.76431,3.79758 -2.7818,4.75141 -0.0175,0.95382 -0.6664,2.57204 -1.44202,3.59605 -2.08255,2.74949 -2.9516,11.81911 -1.54182,16.09079 1.80409,5.46645 6.54347,7.91171 18.51564,9.55305 8.19072,1.12293 14.89402,0.6214 17.88456,-1.33808 z m 41.83043,-17.84595 c 8.54238,-4.71854 12.69058,-16.44056 9.32619,-26.35407 -2.76944,-8.16041 -7.10437,-11.46757 -15.03136,-11.46757 -7.39353,0 -13.12124,3.65715 -16.46669,10.51399 -0.80128,1.64231 -2.07875,3.74061 -2.83882,4.6629 -3.67942,4.46468 -3.24755,14.65873 0.83223,19.64441 5.23017,6.39151 15.6894,7.68941 24.17845,3.00034 z m -62.71499,-25.82164 c 0.33992,-0.55 4.61492,-1 9.5,-1 4.88508,0 9.16008,0.45 9.5,1 0.33992,0.55 1.94148,1 3.55902,1 2.68485,0 2.94098,-0.29968 2.94098,-3.44098 0,-1.89254 0.45,-3.7191 1,-4.05902 0.55,-0.33992 1,-2.52648 1,-4.85902 0,-2.33254 0.37175,-4.66848 0.82612,-5.19098 2.08003,-2.39194 3.11363,-10.39019 3.61907,-28.00527 0.30072,-10.4804 0.98526,-24.6554 1.5212,-31.5 1.42342,-18.17879 1.45788,-32.22205 0.152,-61.94473 -1.35752,-30.89822 -1.95317,-38.05661 -3.30402,-39.70704 -0.66752,-0.81555 -0.52812,-1.86355 0.42979,-3.23116 1.40133,-2.00068 1.44754,-1.99249 3.98967,0.70704 3.15126,3.34637 3.5776,6.26699 4.77794,32.73116 1.77273,39.08398 2.29004,74.59819 1.1039,75.78433 -0.68856,0.68856 -1.11567,5.41905 -1.11567,12.35665 0,6.4153 -0.42929,11.5063 -1,11.85902 -0.58252,0.36002 -1,5.96968 -1,13.43689 0,8.92121 -0.43979,13.87142 -1.44641,16.2806 l -1.4464,3.46173 5.16433,-1.33961 c 2.84039,-0.73679 6.16471,-1.33961 7.38739,-1.33961 1.22268,0 2.50117,-0.45 2.84109,-1 0.33992,-0.55 4.11304,-1 8.3847,-1 6.97494,0 8.00419,0.25283 10.09669,2.48019 2.97719,3.16908 10.05619,6.88285 11.1086,5.82779 0.44327,-0.44439 1.30196,-3.50798 1.9082,-6.80798 0.60625,-3.3 1.53508,-8.25 2.06406,-11 0.91634,-4.76365 1.60124,-9.17057 3.88537,-25 1.786,-12.37725 3.12497,-27.54632 4.10455,-46.5 1.27015,-24.57586 1.68336,-27.82449 4.11397,-32.34384 1.87662,-3.48928 1.95774,-4.36558 0.87937,-9.5 -1.23692,-5.88929 -0.9217,-42.79667 0.43265,-50.65616 0.3791,-2.2 2.85325,-8.5 5.49812,-14 2.64486,-5.5 5.09623,-10.9612 5.44748,-12.13599 0.65218,-2.18125 -2.88366,-14.234188 -6.48413,-22.103108 -1.0668,-2.3315 -1.93963,-4.60565 -1.93963,-5.05365 0,-0.44801 -1.07957,-3.04041 -2.39905,-5.760903 -1.31948,-2.720489 -3.15731,-6.746344 -4.08407,-8.946344 -0.92676,-2.2 -2.09718,-4.781394 -2.60095,-5.736431 -0.50376,-0.955037 -0.91593,-2.262561 -0.91593,-2.905609 0,-2.220395 -4.89861,-7.581964 -8.48002,-9.281455 -9.82603,-4.662757 -18.58098,-5.458716 -33.01998,-3.002023 -4.95,0.842207 -10.575,1.785814 -12.5,2.096906 -1.925,0.311091 -4.07569,1.028342 -4.77932,1.59389 -0.92202,0.741093 -1.91751,0.428715 -3.56445,-1.118504 -1.25682,-1.180726 -2.60328,-2.146774 -2.99212,-2.146774 -0.38885,0 -2.46215,-1.161511 -4.60735,-2.581135 -2.1452,-1.419624 -6.81413,-3.245769 -10.3754,-4.058099 -9.18147,-2.094305 -19.59454,-0.05745 -31.31663,6.125728 l -8.55673,4.513506 -13.654,0.02445 c -23.15918,0.04146 -30.87911,2.572195 -43.81128,14.36212 -3.38651,3.087385 -6.88012,5.61343 -7.76357,5.61343 -0.88346,0 -2.38768,0.39476 -3.34272,0.877244 -0.95504,0.482485 -3.53643,1.446374 -5.73643,2.141975 -16.0278,5.067708 -21.597408,11.350898 -24.510318,27.650568 -1.8923,10.588638 -0.80431,33.888878 1.99993,42.830208 1.20746,3.85 2.52574,8.575 2.929498,10.5 0.40377,1.925 1.45206,5.075 2.32954,7 0.87748,1.925 1.82298,5.075 2.10113,7 0.27814,1.925 1.01947,5.525 1.64741,8 0.62793,2.475 1.54489,7.2 2.03768,10.5 2.63513,17.64641 4.62699,20.91685 15.96513,26.21319 3.77392,1.7629 12.42376,3.28681 18.65621,3.28681 4.90728,0 5.47149,-0.20482 4.82057,-1.75 -0.40545,-0.9625 -1.11674,-3.775 -1.58063,-6.25 -0.46389,-2.475 -1.34234,-6.3 -1.95211,-8.5 -1.23201,-4.44503 -1.38974,-5.36781 -2.99133,-17.5 -0.61716,-4.675 -1.80643,-10.975 -2.64283,-14 -2.28943,-8.28011 -3.29669,-13.76792 -3.94624,-21.5 -0.51922,-6.18073 -0.35245,-7.21244 1.42488,-8.81514 2.47649,-2.23316 3.3283,-1.18647 4.32191,5.3107 1.02396,6.69561 2.58003,14.43055 4.92966,24.50444 1.15454,4.95 2.49843,12.41122 2.98642,16.5805 0.48798,4.16927 1.38629,9.56927 1.99624,12 0.60995,2.43072 1.46557,6.08865 1.90139,8.12872 2.09935,9.82711 8.5909,13.53919 27.57586,15.76878 3.85,0.45214 8.2734,0.57863 9.82977,0.28108 2.38469,-0.4559 2.70741,-0.87271 2.05181,-2.65003 -1.12619,-3.05309 -0.90922,-14.08738 0.59204,-30.10905 1.51934,-16.21463 1.65752,-26.02997 0.56309,-40 -0.73662,-9.40288 -0.65869,-10.11187 1.30512,-11.87348 2.05338,-1.84194 2.10448,-1.83353 3.0365,0.5 3.3472,8.38048 3.69973,26.96042 1.09806,57.87348 -1.21387,14.42337 -1.1899,14.99756 1.16894,28 1.14745,6.325 2.28562,12.85 2.52927,14.5 0.24364,1.65 1.12335,7.05 1.95491,12 4.16454,24.79039 5.2659,35.71701 6.02257,59.75 l 0.62181,19.75 h 6.80404 c 3.74222,0 7.08215,-0.45 7.42207,-1 z m -5.3183,-31.05287 c -1.12681,-1.82806 -1.06799,-2.4153 0.40499,-4.04292 1.48966,-1.64606 3.17253,-1.90421 12.41331,-1.90421 9.0896,0 10.938,0.27401 12.3464,1.83028 1.55347,1.71656 1.51651,1.89809 -0.59501,2.92186 -1.23826,0.60038 -6.07639,1.35481 -10.75139,1.67653 -4.675,0.32171 -9.4,0.82619 -10.5,1.12106 -1.35027,0.36195 -2.42827,-0.15868 -3.3183,-1.6026 z m 55.85567,-12.25891 c -0.94583,-1.51451 -0.83908,-2.24984 0.54932,-3.78401 1.39006,-1.536 3.11387,-1.90421 8.91466,-1.90421 7.1399,0 12.00231,1.4921 14.44198,4.43172 1.89411,2.28226 -0.35902,2.84606 -11.97594,2.99677 -9.53227,0.12367 -10.88964,-0.0743 -11.93002,-1.74027 z m -61.63399,-77.79484 c -2.75735,-3.04711 2.11271,-4.85624 15.07879,-5.60147 8.26514,-0.47505 14.48814,0.7709 17.79146,3.56215 3.28637,2.77693 0.15418,3.48309 -15.81454,3.56546 -13.12777,0.0677 -15.83241,-0.17429 -17.05571,-1.52614 z m 68.07264,-1.91987 c -1.22284,-1.35123 -1.27281,-1.88749 -0.25125,-2.69593 3.05664,-2.41896 19.21889,-4.23392 21.08504,-2.36777 0.59961,0.59961 1.83045,1.09019 2.7352,1.09019 0.90476,0 2.41907,0.85533 3.36515,1.90072 2.66292,2.9425 0.54993,3.5287 -13.15891,3.65061 -10.31198,0.0917 -12.49011,-0.15779 -13.77523,-1.57782 z m 56.52398,-20.23335 c 3.66256,-2.00413 13,-11.32758 13,-12.98053 0,-0.52656 0.61176,-2.37538 1.35947,-4.1085 3.15323,-7.30892 3.66181,-8.98087 4.24738,-13.96316 0.69884,-5.94602 -0.18161,-8.01563 -14.65058,-34.43797 -2.78469,-5.08523 -4.96939,-5.40307 -6.87354,-1 -0.77301,1.7875 -2.50749,5.69216 -3.85438,8.67701 -1.3469,2.98486 -2.86966,7.93486 -3.38393,11 -1.7127,10.20816 -2.15482,31.14426 -0.8708,41.23557 l 1.22947,9.66258 3.14846,-1.08491 c 1.73165,-0.5967 4.72345,-1.94674 6.64845,-3.00009 z m 9.46506,-26.79669 c -0.35913,-0.58109 -3.01452,-2.13673 -5.90086,-3.45697 -6.90218,-3.15713 -8.4314,-4.95202 -5.53822,-6.5004 2.9637,-1.58613 10.22244,0.61998 13.58375,4.12844 2.25125,2.34979 2.39443,2.90594 1.22868,4.77259 -1.46531,2.34634 -2.39597,2.63777 -3.37335,1.05634 z"
     id="path3723"
     inkscape:connector-curvature="0" />
</svg>
